<?xml version="1.0" encoding="UTF-8"?>
<svg width="24px" height="24px" viewBox="0 0 24 24" version="1.1" xmlns="http://www.w3.org/2000/svg" xmlns:xlink="http://www.w3.org/1999/xlink">
    <!-- Generator: Sketch 52.2 (67145) - http://www.bohemiancoding.com/sketch -->
    <title>icons_filled_more</title>
    <desc>Created with Sketch.</desc>
    <g id="icons_filled_more" stroke="none" stroke-width="1" fill="none" fill-rule="evenodd">
        <g id="common_icons_more" fill="#000000">
            <path d="M7,12 C7,13.1044 6.1044,14 5,14 C3.8956,14 3,13.1044 3,12 C3,10.8952 3.8956,10 5,10 C6.1044,10 7,10.8952 7,12 Z M12,10 C13.1044,10 14,10.8952 14,12 C14,13.1044 13.1044,14 12,14 C10.8956,14 10,13.1044 10,12 C10,10.8952 10.8956,10 12,10 Z M19,10 C20.1044,10 21,10.8952 21,12 C21,13.1044 20.1044,14 19,14 C17.8956,14 17,13.1044 17,12 C17,10.8952 17.8956,10 19,10 Z" id="Combined-Shape"></path>
        </g>
    </g>
</svg>