<?xml version="1.0" encoding="UTF-8"?>
<svg width="24px" height="24px" viewBox="0 0 24 24" version="1.1" xmlns="http://www.w3.org/2000/svg" xmlns:xlink="http://www.w3.org/1999/xlink">
    <!-- Generator: Sketch 50.2 (55047) - http://www.bohemiancoding.com/sketch -->
    <title>icons_outlined_add-friends</title>
    <desc>Created with Sketch.</desc>
    <defs></defs>
    <g id="icons_outlined_add-friends" stroke="none" stroke-width="1" fill="none" fill-rule="evenodd">
        <g id="icon13" fill="#000000" fill-rule="nonzero">
            <path d="M7.83191269,12.350138 C7.09631763,11.4782852 6.5,9.84949648 6.5,8.70929053 L6.5,6.99958038 C6.5,4.79067313 8.29535615,3 10.5,3 C12.709139,3 14.5,4.79298022 14.5,7.00020747 L14.5,8.71018568 C14.5,9.84929595 13.9009324,11.4828603 13.1680872,12.351573 L12.8065546,12.7801327 C12.2170324,13.4789507 12.4011877,14.3683976 13.225549,14.7705104 L18.8859024,17.5315576 C19.5012015,17.8316925 20,18.6251701 20,19.3154633 L20,20.0015619 C20,20.552984 19.5490746,21 18.9985704,21 L2.00142961,21 C1.44835531,21 1,20.5557555 1,20.0015619 L1,19.3154633 C1,18.6303744 1.49815091,17.8319079 2.11409761,17.5313327 L7.77445076,14.769143 C8.59537712,14.36854 8.78625906,13.4812624 8.19344522,12.7786389 L7.83191269,12.350138 Z M2.2,19.8 L18.8,19.8 L18.8,19.3154633 C18.8,19.0860594 18.564679,18.7100199 18.3598095,18.6100873 L12.6994561,15.8490401 C11.1728743,15.1043932 10.7955728,13.302913 11.8893366,12.0063685 L12.2508692,11.5778088 C12.802195,10.9242686 13.3,9.56439093 13.3,8.71018568 L13.3,7.00020747 C13.3,5.4549142 12.0455898,4.2 10.5,4.2 C8.95630885,4.2 7.7,5.4552027 7.7,6.99958038 L7.7,8.70929053 C7.7,9.56566389 8.19574673,10.9204838 8.74907842,11.5763118 L9.11061095,12.0048127 C10.2066364,13.3038601 9.82521432,15.1036503 8.30071945,15.8475869 L2.6403663,18.6097766 C2.43701709,18.7090088 2.2,19.0886771 2.2,19.3154633 L2.2,19.8 Z M18.8999939,10.8999939 L18.8999939,8 L20.0999939,8 L20.0999939,10.8999939 L23,10.8999939 L23,12.0999939 L20.0999939,12.0999939 L20.0999939,15 L18.8999939,15 L18.8999939,12.0999939 L16,12.0999939 L16,10.8999939 L18.8999939,10.8999939 Z" id="Combined-Shape"></path>
        </g>
    </g>
</svg>