<?xml version="1.0" encoding="UTF-8"?>
<svg width="16px" height="16px" viewBox="0 0 16 16" version="1.1" xmlns="http://www.w3.org/2000/svg" xmlns:xlink="http://www.w3.org/1999/xlink">
    <!-- Generator: Sketch 58 (84663) - https://sketch.com -->
    <title>icons_outlined_official-accounts</title>
    <desc>Created with Sketch.</desc>
    <g id="icons_outlined_official-accounts" stroke="none" stroke-width="1" fill="none" fill-rule="evenodd">
        <g id="Group" transform="translate(0.000000, 0.500000)" fill="#000000">
            <path d="M15,14 L15,13.5962194 C15,13.4050495 14.8015365,13.0916833 14.628755,13.0084061 L9.85496301,10.7075334 C8.56748434,10.0869943 8.24927824,8.58576087 9.17172965,7.50530705 L9.47663664,7.14817397 C9.94161025,6.6035572 10.3614458,5.47032578 10.3614458,4.75848807 L10.3614458,3.33350622 C10.3614458,2.04576183 9.30350948,1 8,1 C6.6980918,1 5.63855422,2.04600225 5.63855422,3.33298365 L5.63855422,4.75774211 C5.63855422,5.47138657 6.05665387,6.60040317 6.52331915,7.14692646 L6.8282261,7.50401056 C7.75258493,8.58655011 7.43090364,10.0863753 6.14518508,10.7063224 L1.37139326,13.0081472 C1.19989393,13.0908406 1,13.4072309 1,13.5962194 L1,14 L15,14 Z M0,14.1666667 L0,13.5962194 C0,13.025312 0.419495501,12.3599232 0.93818746,12.1094439 L5.70480064,9.80761918 C6.39610705,9.47378336 6.55684973,8.73438537 6.05763808,8.14886575 L5.75318964,7.79178165 C5.13374116,7.06523763 4.63157895,5.70791373 4.63157895,4.75774211 L4.63157895,3.33298365 C4.63157895,1.49222761 6.14345781,0 8,0 C9.86032758,0 11.3684211,1.49415019 11.3684211,3.33350622 L11.3684211,4.75848807 C11.3684211,5.70774662 10.8639431,7.06905029 10.2468102,7.79297753 L9.94236176,8.15011061 C9.44592203,8.73245889 9.60100017,9.47366467 10.2951991,9.80875865 L15.0618125,12.1096313 C15.5799592,12.3597438 16,13.0209751 16,13.5962194 L16,14.1666667 C16,14.626904 15.6229766,15 15.1578947,15 L0.842105263,15 C0.377023369,15 0,14.626904 0,14.1666667 Z" id="Path-67" fill-rule="nonzero"></path>
            <polygon id="Rectangle-35" points="7 12.55 8 10.3 9 12.55 8 13.3"></polygon>
        </g>
    </g>
</svg>