<?xml version="1.0" encoding="UTF-8"?>
<svg width="16px" height="16px" viewBox="0 0 16 16" version="1.1" xmlns="http://www.w3.org/2000/svg" xmlns:xlink="http://www.w3.org/1999/xlink">
    <!-- Generator: Sketch 58 (84663) - https://sketch.com -->
    <title>icons_outlined_search</title>
    <desc>Created with Sketch.</desc>
    <g id="icons_outlined_search" stroke="none" stroke-width="1" fill="none" fill-rule="evenodd">
        <path d="M6.77791152,0 C10.5212552,0 13.555823,3.03456781 13.555823,6.77791152 C13.555823,8.46525386 12.939251,10.0085851 11.9191175,11.1948946 L15.9031727,15.178393 L15.0815657,16 L11.0891079,12.0082343 C9.91751293,12.9750497 8.41553706,13.555823 6.77791152,13.555823 C3.03456781,13.555823 0,10.5212552 0,6.77791152 C0,3.03456781 3.03456781,0 6.77791152,0 Z M6.77790875,1.16193951 C3.676281,1.16193951 1.16192473,3.67629578 1.16192473,6.77792352 C1.16192473,9.87955126 3.676281,12.3939075 6.77790875,12.3939075 C9.87953649,12.3939075 12.3938928,9.87955126 12.3938928,6.77792352 C12.3938928,3.67629578 9.87953649,1.16193951 6.77790875,1.16193951 Z" id="Fill-1" fill="#000000"></path>
    </g>
</svg>