<?xml version="1.0" encoding="UTF-8"?>
<svg width="16px" height="16px" viewBox="0 0 16 16" version="1.1" xmlns="http://www.w3.org/2000/svg" xmlns:xlink="http://www.w3.org/1999/xlink">
    <!-- Generator: Sketch 58 (84663) - https://sketch.com -->
    <title>icons_outlined_mini-program</title>
    <desc>Created with Sketch.</desc>
    <g id="icons_outlined_mini-program" stroke="none" stroke-width="1" fill="none" fill-rule="evenodd">
        <path d="M11.6862283,0.9 C14.0490163,0.9 15.975,2.619023 15.975,4.73907971 C15.975,6.61641244 14.5487607,8.17649243 12.4959157,8.53551359 L12.4959157,8.53551359 L12.338078,8.53460791 C12.1143242,8.53460791 11.9338637,8.46455189 11.8474037,8.33051065 C11.7711721,8.21379759 11.7813921,8.08018823 11.8411298,7.94586692 C11.9716314,7.64340192 12.26765,7.41097286 12.6141728,7.33479871 L12.6141728,7.33479871 L12.7949022,7.28616346 C14.0400193,6.91524388 14.8591329,5.91175035 14.8591329,4.73907971 C14.8591329,3.26362238 13.4585073,2.05631886 11.7308382,2.05631886 C10.002396,2.05631886 8.60163295,3.26350585 8.60163295,4.73907971 L8.60163295,4.73907971 L8.60163295,11.2618276 C8.60163295,13.3806706 6.67588397,15.1 4.31377168,15.1 C1.95149198,15.1 0.025,13.3805233 0.025,11.2618276 C0.025,9.38981778 1.49547958,7.81213525 3.53557447,7.50535726 L3.53557447,7.50535726 L3.65645954,7.50894362 C3.97258304,7.50894362 4.19527457,7.6636376 4.19369124,7.93062147 L4.19369124,7.93062147 L4.16149354,8.09430442 C4.03907037,8.37594148 3.71908925,8.62617598 3.37670704,8.71147865 C2.05863789,9.02889 1.14086705,10.0789944 1.14086705,11.2618276 C1.14086705,12.7374015 2.54163011,13.9445885 4.27007225,13.9445885 C5.99792176,13.9445885 7.39927746,12.7371257 7.39927746,11.2618276 L7.39927746,11.2618276 L7.39927746,4.73907971 C7.39927746,2.61900535 9.32437448,0.9 11.6862283,0.9 Z" id="Fill-1" fill="#000000" fill-rule="nonzero"></path>
    </g>
</svg>