<?xml version="1.0" encoding="UTF-8"?>
<svg width="16px" height="16px" viewBox="0 0 16 16" version="1.1" xmlns="http://www.w3.org/2000/svg" xmlns:xlink="http://www.w3.org/1999/xlink">
    <!-- Generator: Sketch 58 (84663) - https://sketch.com -->
    <title>icons_outlined_sticker</title>
    <desc>Created with Sketch.</desc>
    <g id="icons_outlined_sticker" stroke="none" stroke-width="1" fill="none" fill-rule="evenodd">
        <g id="Group" fill="#000000">
            <path d="M8,15.04 C11.8880846,15.04 15.04,11.8880846 15.04,8 C15.04,4.11191536 11.8880846,0.96 8,0.96 C4.11191536,0.96 0.96,4.11191536 0.96,8 C0.96,11.8880846 4.11191536,15.04 8,15.04 Z M8,16 C3.581722,16 0,12.418278 0,8 C0,3.581722 3.581722,0 8,0 C12.418278,0 16,3.581722 16,8 C16,12.418278 12.418278,16 8,16 Z" id="Oval-78" fill-rule="nonzero"></path>
            <path d="M8,12.24 C9.78928585,12.24 11.2927421,11.0162181 11.7190232,9.36 L4.28097679,9.36 C4.70725787,11.0162181 6.21071415,12.24 8,12.24 Z M3.2,8.4 L12.8,8.4 C12.8,11.0509668 10.6509668,13.2 8,13.2 C5.3490332,13.2 3.2,11.0509668 3.2,8.4 Z" id="Combined-Shape" fill-rule="nonzero"></path>
            <path d="M5.2,4.4 C5.8627417,4.4 6.4,4.9372583 6.4,5.6 C6.4,6.2627417 5.8627417,6.8 5.2,6.8 C4.5372583,6.8 4,6.2627417 4,5.6 C4,4.9372583 4.5372583,4.4 5.2,4.4 Z M10.8,4.4 C11.4627417,4.4 12,4.9372583 12,5.6 C12,6.2627417 11.4627417,6.8 10.8,6.8 C10.1372583,6.8 9.6,6.2627417 9.6,5.6 C9.6,4.9372583 10.1372583,4.4 10.8,4.4 Z" id="Combined-Shape"></path>
        </g>
    </g>
</svg>