<?xml version="1.0" encoding="UTF-8"?>
<svg width="16px" height="16px" viewBox="0 0 16 16" version="1.1" xmlns="http://www.w3.org/2000/svg" xmlns:xlink="http://www.w3.org/1999/xlink">
    <!-- Generator: Sketch 58 (84663) - https://sketch.com -->
    <title>icons_outlined_moment</title>
    <desc>Created with Sketch.</desc>
    <g id="icons_outlined_moment" stroke="none" stroke-width="1" fill="none" fill-rule="evenodd" fill-opacity="0.9">
        <g id="3.Icons/Outlined/moment" fill="#000000">
            <g id="朋友圈-临时">
                <path d="M8,0 C3.6,0 0,3.6 0,8 C0,12.4 3.6,16 8,16 C12.4,16 16,12.4 16,8 C16,3.6 12.4,0 8,0 Z M14.4,5.04 L11.36,8 C11.36,8 11.36,8 11.36,8 L11.36,1.84 C12.64,2.56 13.76,3.68 14.4,5.04 Z M9.68,9.68 C9.28,10.16 8.64,10.4 8,10.4 C7.36,10.4 6.72,10.16 6.32,9.68 L6.32,9.68 L6.32,9.68 C5.84,9.28 5.6,8.64 5.6,8 C5.6,6.64 6.64,5.6 8,5.6 C9.36,5.6 10.4,6.64 10.4,8 C10.4,8.64 10.16,9.28 9.68,9.68 L9.68,9.68 L9.68,9.68 Z M10.4,1.36 L10.4,5.6 C10.4,5.6 10.4,5.6 10.4,5.6 L10.4,5.6 L6,1.28 C6.64,1.12 7.28,0.96 8,0.96 C8.88,0.96 9.68,1.12 10.4,1.36 Z M5.04,1.6 L8,4.64 C8,4.64 8,4.64 8,4.64 L1.84,4.64 C2.56,3.36 3.68,2.24 5.04,1.6 Z M1.36,5.6 L5.6,5.6 L1.2,10 C1.04,9.36 0.88,8.72 0.88,8 C0.96,7.12 1.12,6.32 1.36,5.6 Z M1.6,10.96 L4.64,8 C4.64,8 4.64,8 4.64,8 L4.64,14.16 C3.36,13.44 2.24,12.32 1.6,10.96 Z M5.6,14.64 L5.6,10.4 C5.6,10.4 5.6,10.4 5.6,10.4 L5.6,10.4 L10,14.8 C9.36,14.96 8.72,15.12 8,15.12 C7.12,15.04 6.32,14.88 5.6,14.64 Z M10.96,14.4 L8,11.36 C8,11.36 8,11.36 8,11.36 L14.16,11.36 C13.44,12.64 12.32,13.76 10.96,14.4 Z M14.64,10.4 L10.4,10.4 C10.4,10.4 10.4,10.4 10.4,10.4 L10.4,10.4 L14.8,6 C14.96,6.64 15.12,7.28 15.12,8 C15.04,8.88 14.88,9.68 14.64,10.4 Z" id="图标颜色"></path>
            </g>
        </g>
    </g>
</svg>