<?xml version="1.0" encoding="UTF-8"?>
<svg width="16px" height="16px" viewBox="0 0 16 16" version="1.1" xmlns="http://www.w3.org/2000/svg" xmlns:xlink="http://www.w3.org/1999/xlink">
    <!-- Generator: Sketch 58 (84663) - https://sketch.com -->
    <title>icons_outlined_music</title>
    <desc>Created with Sketch.</desc>
    <g id="icons_outlined_music" stroke="none" stroke-width="1" fill="none" fill-rule="evenodd">
        <path d="M11.8533107,12.0848383 C11.8343107,11.7018383 12.0823107,11.4048383 12.2613107,11.3698383 L13.5323107,11.1158383 C13.6823107,11.0868383 13.8293107,11.0398383 13.9663107,10.9768383 L13.9663107,11.5828383 C13.9663107,11.9378383 13.6903107,12.3428383 13.3793107,12.4878383 C13.2703107,12.5218383 12.7023107,12.6548383 12.5113107,12.6938383 C12.1753107,12.7568383 11.8723107,12.4538383 11.8533107,12.0848383 L11.8533107,12.0848383 Z M2.10131066,14.2548383 C2.08231066,13.8718383 2.32531066,13.5768383 2.50131066,13.5418383 L3.75331066,13.2878383 C3.90131066,13.2598383 4.04431066,13.2138383 4.17831066,13.1518383 L4.17831066,13.7568383 C4.17831066,14.1108383 3.90531066,14.5178383 3.59931066,14.6608383 C3.48931066,14.6958383 2.92831066,14.8288383 2.74031066,14.8658383 C2.41631066,14.9318383 2.11931066,14.6238383 2.10131066,14.2548383 L2.10131066,14.2548383 Z M15.0653107,0.600838272 C15.0653107,0.557838272 15.0613107,0.514838272 15.0513107,0.472838272 C14.9833107,0.157838272 14.6593107,-0.0601617276 14.3363107,0.0148382724 L5.12731066,2.03183827 C4.62631066,2.14183827 4.26231066,2.59383827 4.26231066,3.10583827 L4.26231066,3.38483827 L4.26231066,11.3248383 C4.26231066,11.7528383 3.95631066,12.1278383 3.53531066,12.2118383 L2.28331066,12.4658383 C1.52131066,12.6178383 0.959310657,13.4298383 1.00231066,14.3128383 C1.04131066,15.1118383 1.67931066,15.9778383 2.64131066,15.9778383 C2.74531066,15.9778383 2.85131066,15.9668383 2.95731066,15.9448383 C3.02431066,15.9318383 3.87431066,15.7448383 4.02131066,15.6768383 C4.76131066,15.3308383 5.27831066,14.5418383 5.27831066,13.7568383 L5.27831066,3.16083827 L14.0433107,1.24083827 L14.0433107,9.15083827 C14.0433107,9.58083827 13.7373107,9.95583827 13.3143107,10.0398383 L12.0453107,10.2918383 C11.2773107,10.4448383 10.7093107,11.2578383 10.7523107,12.1398383 C10.7933107,12.9408383 11.4373107,13.8078383 12.4073107,13.8078383 C12.5103107,13.8078383 12.6183107,13.7958383 12.7233107,13.7748383 C12.7913107,13.7618383 13.6493107,13.5748383 13.7953107,13.5068383 C14.5413107,13.1608383 15.0633107,12.3698383 15.0633107,11.5848383 L15.0633107,1.01783827 L15.0653107,1.01783827 L15.0653107,0.600838272 Z" id="Fill-1" fill="#000000"></path>
    </g>
</svg>