<?xml version="1.0" encoding="UTF-8"?>
<svg width="24px" height="24px" viewBox="0 0 24 24" version="1.1" xmlns="http://www.w3.org/2000/svg" xmlns:xlink="http://www.w3.org/1999/xlink">
    <!-- Generator: Sketch 52.2 (67145) - http://www.bohemiancoding.com/sketch -->
    <title>icons_filled_contacts</title>
    <desc>Created with Sketch.</desc>
    <g id="icons_filled_contacts" stroke="none" stroke-width="1" fill="none" fill-rule="evenodd">
        <g id="icon12" fill="#000000">
            <path d="M1,20 L1,19.3154633 C1,18.6303744 1.49815091,17.8319079 2.11409761,17.5313327 L7.77445076,14.769143 C8.59537712,14.36854 8.78625906,13.4812624 8.19344522,12.7786389 L7.83191269,12.350138 C7.09631763,11.4782852 6.5,9.84949648 6.5,8.70929053 L6.5,6.99958038 C6.5,4.79067313 8.29535615,3 10.5,3 C12.709139,3 14.5,4.79298022 14.5,7.00020747 L14.5,8.71018568 C14.5,9.84929595 13.9009324,11.4828603 13.1680872,12.351573 L12.8065546,12.7801327 C12.2170324,13.4789507 12.4011877,14.3683976 13.225549,14.7705104 L18.8859024,17.5315576 C19.5012015,17.8316925 20,18.6251701 20,19.3154633 L20,20 C20,20.5522847 19.5522847,21 19,21 L2,21 C1.44771525,21 1,20.5522847 1,20 Z M20,14.5 L23,14.5 L23,16 L20,16 L20,14.5 Z M18,11.5 L23,11.5 L23,13 L18,13 L18,11.5 Z M16,8.5 L23,8.5 L23,10 L16,10 L16,8.5 Z" id="Combined-Shape"></path>
        </g>
    </g>
</svg>