<?xml version="1.0" encoding="UTF-8"?>
<svg width="24px" height="24px" viewBox="0 0 24 24" version="1.1" xmlns="http://www.w3.org/2000/svg" xmlns:xlink="http://www.w3.org/1999/xlink">
    <!-- Generator: Sketch 50.2 (55047) - http://www.bohemiancoding.com/sketch -->
    <title>icons_outlined_discover</title>
    <desc>Created with Sketch.</desc>
    <defs></defs>
    <g id="icons_outlined_discover" stroke="none" stroke-width="1" fill="none" fill-rule="evenodd">
        <g id="icon22" fill="#000000" fill-rule="nonzero">
            <path d="M12,20.8 C16.8601058,20.8 20.8,16.8601058 20.8,12 C20.8,7.1398942 16.8601058,3.2 12,3.2 C7.1398942,3.2 3.2,7.1398942 3.2,12 C3.2,16.8601058 7.1398942,20.8 12,20.8 Z M12,22 C6.4771525,22 2,17.5228475 2,12 C2,6.4771525 6.4771525,2 12,2 C17.5228475,2 22,6.4771525 22,12 C22,17.5228475 17.5228475,22 12,22 Z M11.1233556,11.1233556 L9.26736162,14.7326384 L12.8766444,12.8766444 L14.7326384,9.26736162 L11.1233556,11.1233556 Z M10.232233,10.232233 L16.1243501,7.20234187 C16.2678549,7.12854767 16.4381526,7.12854767 16.5816575,7.20234187 C16.8272333,7.32862381 16.9239401,7.63007409 16.7976581,7.87564991 L13.767767,13.767767 L7.87564991,16.7976581 C7.73214506,16.8714523 7.56184738,16.8714523 7.41834253,16.7976581 C7.17276672,16.6713762 7.07605992,16.3699259 7.20234187,16.1243501 L10.232233,10.232233 Z" id="Combined-Shape"></path>
        </g>
    </g>
</svg>