<?xml version="1.0" encoding="UTF-8"?>
<svg width="24px" height="24px" viewBox="0 0 24 24" version="1.1" xmlns="http://www.w3.org/2000/svg" xmlns:xlink="http://www.w3.org/1999/xlink">
    <!-- Generator: Sketch 52.2 (67145) - http://www.bohemiancoding.com/sketch -->
    <title>icons_filled_scan</title>
    <desc>Created with Sketch.</desc>
    <g id="icons_filled_scan" stroke="none" stroke-width="1" fill="none" fill-rule="evenodd">
        <g id="icon15" fill="#000000">
            <path d="M11.9295775,17 L8,17 C7.44771525,17 7,16.5522847 7,16 C7,15.4477153 7.44771525,15 8,15 L17.6338028,15 C18.1971831,15 18.6901408,14.6478873 18.7605634,14.084507 L18.7605634,13.8732394 L18.7605634,12.1126761 C18.7605634,11.5492958 18.971831,10.9859155 19.3943662,10.5633803 C19.6056338,10.2816901 20.028169,10 20.3802817,10 C20.8732394,10 21.2253521,10.4225352 21.1549296,10.915493 C21.1549296,10.915493 21.084507,11.6197183 21.084507,11.971831 C21.084507,12.7464789 21.1549296,13.5915493 21.3661972,14.3661972 C21.4366197,14.6478873 21.5070423,14.8591549 21.5774648,15.0704225 C21.8591549,15.9859155 22,16.9014085 22,17.8873239 L22,18.6619718 C21.9295775,19.2957746 21.6478873,19.9295775 21.2957746,20.4225352 C20.6619718,21.3380282 19.6056338,21.9014085 18.4084507,22 L16.5774648,22 C15.5211268,21.971831 14.5352113,21.4788732 13.8309859,20.7746479 C13.6901408,20.6338028 13.5492958,20.4225352 13.4084507,20.2112676 C12.7042254,19.3661972 12.2112676,18.3098592 11.9295775,17 Z M12.0704225,7 L16,7 C16.5522847,7 17,7.44771525 17,8 C17,8.55228475 16.5522847,9 16,9 L6.36619718,9 C5.8028169,9 5.30985915,9.35211268 5.23943662,9.91549296 L5.23943662,10.1267606 L5.23943662,11.8873239 C5.23943662,12.4507042 5.02816901,13.0140845 4.6056338,13.4366197 C4.3943662,13.7183099 3.97183099,14 3.61971831,14 C3.12676056,14 2.77464789,13.5774648 2.84507042,13.084507 C2.84507042,13.084507 2.91549296,12.3802817 2.91549296,12.028169 C2.91549296,11.2535211 2.84507042,10.4084507 2.63380282,9.63380282 C2.56338028,9.35211268 2.49295775,9.14084507 2.42253521,8.92957746 C2.14084507,8.01408451 2,7.09859155 2,6.11267606 L2,5.33802817 C2.07042254,4.70422535 2.35211268,4.07042254 2.70422535,3.57746479 C3.33802817,2.66197183 4.3943662,2.09859155 5.5915493,2 L7.42253521,2 C8.47887324,2.02816901 9.46478873,2.52112676 10.1690141,3.22535211 C10.3098592,3.36619718 10.4507042,3.57746479 10.5915493,3.78873239 C11.2957746,4.63380282 11.7887324,5.69014085 12.0704225,7 Z" id="Combined-Shape"></path>
        </g>
    </g>
</svg>