<?xml version="1.0" encoding="UTF-8"?>
<svg width="24px" height="24px" viewBox="0 0 24 24" version="1.1" xmlns="http://www.w3.org/2000/svg" xmlns:xlink="http://www.w3.org/1999/xlink">
    <!-- Generator: Sketch 61.2 (89653) - https://sketch.com -->
    <title>转曲logo@1</title>
    <desc>Created with Sketch.</desc>
    <g id="转曲logo@1" stroke="none" stroke-width="1" fill="none" fill-rule="evenodd">
        <g id="编组" transform="translate(11.470588, 3.500000)"></g>
        <g id="编组-2">
            <rect id="矩形" x="0" y="0" width="24" height="24"></rect>
            <path d="M18.7676647,3.57157112 C19.860577,3.12580631 20.7949731,3.55342777 21.2819058,4.78244836 C22.592262,8.08900587 19.5249957,20.6 17.11854,20.6 C16.3399319,20.6 15.5596305,19.9467627 14.650561,18.7725855 C14.2408441,18.2433849 13.8131508,17.6125722 13.3734192,16.9006112 C13.0216468,16.3310634 12.6758661,15.7322395 12.3436794,15.1262085 L12.0002556,14.4882683 L12.0002556,14.4882683 L11.9836944,14.5185924 C11.5539886,15.3297707 11.0956107,16.1412141 10.6265808,16.9006112 C10.1868492,17.6125722 9.75915587,18.2433849 9.34943904,18.7725855 C8.44036946,19.9467627 7.66006813,20.6 6.88145996,20.6 C4.47500431,20.6 1.40773801,8.08900587 2.71807612,4.78249388 C3.20502687,3.55342777 4.13942298,3.12580631 5.23233527,3.57157112 C6.02473767,3.89476733 6.89927334,4.66754509 7.8765543,5.8251827 C8.45812748,6.51408487 9.06650515,7.32988795 9.69269337,8.24698916 C10.386017,9.2624153 11.0652752,10.3482462 11.7029642,11.433831 L12.0003646,11.9447211 L12.2970358,11.433831 C12.807187,10.5653632 13.3439425,9.69673781 13.8932203,8.86412821 L14.3073066,8.24698916 C14.9334948,7.32988795 15.5418725,6.51408487 16.1234457,5.8251827 C17.1007267,4.66754509 17.9752623,3.89476733 18.7676647,3.57157112 Z M4.77913937,4.68270274 C4.31762073,4.49446369 4.07982761,4.60328846 3.83368761,5.22454705 C3.40357414,6.30989694 3.58418936,9.04488814 4.22181126,12.1140746 L4.37096528,12.8010825 L4.53478991,13.4958848 C5.33961478,16.7786644 6.49752939,19.4 6.88145996,19.4 C7.14424041,19.4 7.71784996,18.9197969 8.40058199,18.0379629 C8.78152986,17.545921 9.18643674,16.9487165 9.60561748,16.2700291 C9.94586857,15.7191351 10.2816972,15.1374935 10.6047727,14.5480531 L10.9953394,13.8203135 L10.9953394,13.8203135 L11.323,13.184 L10.9804313,12.579151 L10.6682725,12.0416246 C10.0433896,10.9778405 9.37807703,9.91430259 8.70166939,8.92365116 C8.09686464,8.0378677 7.51206495,7.25368148 6.95960921,6.59927035 C6.09808508,5.57875243 5.34543284,4.91367618 4.77913937,4.68270274 Z M20.1662944,5.22450153 C19.9201724,4.60328846 19.6823793,4.49446369 19.2208606,4.68270274 C18.6545672,4.91367618 17.9019149,5.57875243 17.0403908,6.59927035 C16.4879351,7.25368148 15.9031354,8.0378677 15.2983306,8.92365116 C14.7572045,9.71617231 14.2231792,10.5553408 13.7112741,11.4039648 L13.1715837,12.3158232 L12.676,13.184 L12.8459891,13.5156279 L13.0767113,13.9568632 C13.4949085,14.746316 13.9407144,15.5355038 14.3943825,16.2700291 C14.8135633,16.9487165 15.2184701,17.545921 15.599418,18.0379629 C16.28215,18.9197969 16.8557596,19.4 17.11854,19.4 C17.5024706,19.4 18.6603852,16.7786644 19.4652101,13.4958848 L19.6290347,12.8010825 C20.3857017,9.45912337 20.6282849,6.39029029 20.1662944,5.22450153 Z" id="形状" fill="#000000" fill-rule="nonzero"></path>
        </g>
    </g>
</svg>