<?xml version="1.0" encoding="UTF-8"?>
<svg width="24px" height="24px" viewBox="0 0 24 24" version="1.1" xmlns="http://www.w3.org/2000/svg" xmlns:xlink="http://www.w3.org/1999/xlink">
    <!-- Generator: Sketch 50.2 (55047) - http://www.bohemiancoding.com/sketch -->
    <title>icons_outlined_colorful_game</title>
    <desc>Created with Sketch.</desc>
    <defs></defs>
    <g id="icons_outlined_colorful_game" stroke="none" stroke-width="1" fill="none" fill-rule="evenodd">
        <path d="M20.7029376,11.3999939 L12.6,3.29705627 L12.6,7.84253332 C14.4394121,8.1056406 15.8943549,9.5605812 16.1574656,11.3999922 L14.9399879,11.3999939 C14.6620233,10.0306527 13.4513726,9 12,9 C11.7945204,9 11.5938657,9.02065818 11.3999996,9.06001095 L11.3999996,1.92210841 C12.0897921,1.70726683 12.8735096,1.87350965 13.4155384,2.41553842 L21.5844616,10.5844616 C21.8205861,10.8205861 21.9849191,11.1014957 22.0778898,11.3999939 L20.7029376,11.3999939 Z" id="Path" fill="#1588F4"></path>
        <path d="M12.6000061,20.7029376 L20.7029437,12.6 L16.1574667,12.6 C15.8943594,14.4394121 14.4394188,15.8943549 12.6000078,16.1574656 L12.6000061,14.9399879 C13.9693473,14.6620233 15,13.4513726 15,12 C15,11.7945204 14.9793418,11.5938657 14.9399891,11.3999996 L22.0778916,11.3999996 C22.2927332,12.0897921 22.1264904,12.8735096 21.5844616,13.4155384 L13.4155384,21.5844616 C13.1794139,21.8205861 12.8985043,21.9849191 12.6000061,22.0778898 L12.6000061,20.7029376 Z" id="Path" fill="#00C777"></path>
        <path d="M3.29706238,12.6000061 L11.4,20.7029437 L11.4,16.1574667 C9.5605879,15.8943594 8.10564508,14.4394188 7.84253443,12.6000078 L9.06001211,12.6000061 C9.33797667,13.9693473 10.5486274,15 12,15 C12.2054796,15 12.4061343,14.9793418 12.6000004,14.9399891 L12.6000004,22.0778916 C11.9102079,22.2927332 11.1264904,22.1264904 10.5844616,21.5844616 L2.41553842,13.4155384 C2.17941387,13.1794139 2.01508092,12.8985043 1.9221102,12.6000061 L3.29706238,12.6000061 Z" id="Path" fill="#FA5151"></path>
        <path d="M11.3999939,3.29706238 L3.29705627,11.4 L7.84253332,11.4 C8.1056406,9.5605879 9.5605812,8.10564508 11.3999922,7.84253443 L11.3999939,9.06001211 C10.0306527,9.33797667 9,10.5486274 9,12 C9,12.2054796 9.02065818,12.4061343 9.06001095,12.6000004 L1.92210841,12.6000004 C1.70726683,11.9102079 1.87350965,11.1264904 2.41553842,10.5844616 L10.5844616,2.41553842 C10.8205861,2.17941387 11.1014957,2.01508092 11.3999939,1.9221102 L11.3999939,3.29706238 Z" id="Path" fill="#FA9D3B"></path>
    </g>
</svg>