<?xml version="1.0" encoding="UTF-8"?>
<svg width="24px" height="24px" viewBox="0 0 24 24" version="1.1" xmlns="http://www.w3.org/2000/svg" xmlns:xlink="http://www.w3.org/1999/xlink">
    <!-- Generator: Sketch 50.2 (55047) - http://www.bohemiancoding.com/sketch -->
    <title>icons_outlined_scan</title>
    <desc>Created with Sketch.</desc>
    <defs></defs>
    <g id="icons_outlined_scan" stroke="none" stroke-width="1" fill="none" fill-rule="evenodd">
        <g id="icon15" fill="#000000" fill-rule="nonzero">
            <path d="M8,17.7 C7.06111593,17.7 6.3,16.9388841 6.3,16 C6.3,15.0611159 7.06111593,14.3 8,14.3 L17.6338028,14.3 C17.8820821,14.3 18.0440211,14.1732651 18.0605634,14.084507 L18.0605634,12.1126761 C18.0605634,11.3490152 18.3550844,10.6127126 18.8343662,10.1433803 C19.1872641,9.67284979 19.8086804,9.3 20.3802817,9.3 C21.302252,9.3 21.9781584,10.1026388 21.8514556,10.9851456 C21.8430761,11.0689403 21.8302733,11.2076378 21.817489,11.3674414 C21.8113661,11.4439772 21.8058863,11.5179547 21.8012143,11.5880344 C21.7904245,11.7498819 21.784507,11.8830249 21.784507,11.971831 C21.784507,12.7873716 21.8662334,13.5392539 22.0452969,14.1964222 C22.0875962,14.3656195 22.1306885,14.5117291 22.1900717,14.6935902 C22.2153683,14.7705354 22.2153683,14.7705354 22.2465101,14.8645624 C22.5512907,15.8550993 22.7,16.8402986 22.7,17.8873239 L22.6957186,18.7392739 C22.6151925,19.4640092 22.3082944,20.2093331 21.8713092,20.8209822 C21.1197935,21.9065048 19.876422,22.5814779 18.4084507,22.7 L16.5588048,22.6997512 C15.361621,22.6678263 14.1989453,22.1325568 13.3360112,21.2696226 C13.1728911,21.1065026 13.0659425,20.9594482 12.8706958,20.6593967 C12.1904888,19.8431482 11.6963013,18.8615645 11.3796382,17.7 L8,17.7 Z M12.3334819,16.5 L12.4184016,16.8948765 C12.6816336,18.1189053 13.1370555,19.1045684 13.8244759,19.9339175 C14.0152725,20.2201125 14.0998464,20.3364016 14.1845393,20.4210945 C14.8374518,21.074007 15.7122628,21.4767502 16.5774648,21.5 L18.3674132,21.5016869 C19.4309392,21.4141024 20.3445208,20.9181581 20.8889079,20.1319161 C21.2180861,19.6710666 21.4464136,19.1165571 21.5,18.6619718 L21.5,17.8873239 C21.5,16.9601489 21.3692435,16.0938872 21.1031231,15.2285364 C21.0765478,15.1488127 21.0765478,15.1488127 21.0493452,15.0660724 C20.9818164,14.8592654 20.9310081,14.6869937 20.8838153,14.4977559 C20.6774001,13.7409004 20.584507,12.8862839 20.584507,11.971831 C20.584507,11.8508239 20.5914585,11.694417 20.6038722,11.5082115 C20.6089187,11.4325139 20.6147854,11.3533128 20.6213107,11.2717471 C20.6348149,11.1029448 20.6483058,10.9567931 20.6599548,10.8447823 C20.6880941,10.6478072 20.5636249,10.5 20.3802817,10.5 C20.2251881,10.5 19.9373941,10.6726763 19.7479196,10.9169337 C19.432485,11.2323683 19.2605634,11.6621723 19.2605634,12.1126761 L19.2605634,13.8732394 L19.2567023,14.1465244 C19.1556549,14.954904 18.4591433,15.5 17.6338028,15.5 L8,15.5 C7.72385763,15.5 7.5,15.7238576 7.5,16 C7.5,16.2761424 7.72385763,16.5 8,16.5 L12.3334819,16.5 Z M16,6.3 C16.9388841,6.3 17.7,7.06111593 17.7,8 C17.7,8.93888407 16.9388841,9.7 16,9.7 L6.36619718,9.7 C6.11791795,9.7 5.95597893,9.82673488 5.93943662,9.91549296 L5.93943662,11.8873239 C5.93943662,12.6509848 5.64491558,13.3872874 5.1656338,13.8566197 C4.81273593,14.3271502 4.19131962,14.7 3.61971831,14.7 C2.69774795,14.7 2.02184162,13.8973612 2.14854439,13.0148544 C2.15692386,12.9310597 2.16972671,12.7923622 2.182511,12.6325586 C2.18863386,12.5560228 2.19411368,12.4820453 2.19878565,12.4119656 C2.20957549,12.2501181 2.21549296,12.1169751 2.21549296,12.028169 C2.21549296,11.2126284 2.13376662,10.4607461 1.95470307,9.80357775 C1.90146226,9.59061454 1.85881603,9.45201429 1.75348991,9.13543756 C1.44870933,8.14490068 1.3,7.15970139 1.3,6.11267606 L1.30428139,5.2607261 C1.38480753,4.53599076 1.69170558,3.79066693 2.12869082,3.1790178 C2.88020648,2.09349518 4.12357802,1.41852206 5.5915493,1.3 L7.44119524,1.30024876 C8.63837903,1.33217366 9.80105466,1.86744319 10.6639888,2.73037737 C10.8271089,2.89349743 10.9340575,3.04055182 11.1293042,3.34060331 C11.8095112,4.15685175 12.3036987,5.13843554 12.6203618,6.3 L16,6.3 Z M11.6665181,7.5 L11.5815984,7.10512347 C11.3183664,5.88109472 10.8629445,4.89543158 10.1755241,4.06608249 C9.98472751,3.77988753 9.9001536,3.66359841 9.81546069,3.5789055 C9.16254816,2.92599297 8.28773717,2.5232498 7.42253521,2.5 L5.63258684,2.49831307 C4.56906083,2.58589757 3.65547923,3.08184187 3.11109209,3.86808389 C2.78191385,4.32893341 2.55358643,4.88344287 2.5,5.33802817 L2.5,6.11267606 C2.5,7.03985112 2.63075647,7.90611275 2.89687686,8.77146358 C3.00627829,9.09966786 3.05629959,9.2622371 3.11618473,9.50224411 C3.32259985,10.2590996 3.41549296,11.1137161 3.41549296,12.028169 C3.41549296,12.1491761 3.40854154,12.305583 3.39612784,12.4917885 C3.39108133,12.5674861 3.38521458,12.6466872 3.37868933,12.7282529 C3.36518515,12.8970552 3.35169422,13.0432069 3.34004517,13.1552177 C3.31190587,13.3521928 3.4363751,13.5 3.61971831,13.5 C3.77481194,13.5 4.06260585,13.3273237 4.25208041,13.0830663 C4.56751503,12.7676317 4.73943662,12.3378277 4.73943662,11.8873239 L4.73943662,10.1267606 L4.74329768,9.85347559 C4.84434513,9.04509604 5.54085673,8.5 6.36619718,8.5 L16,8.5 C16.2761424,8.5 16.5,8.27614237 16.5,8 C16.5,7.72385763 16.2761424,7.5 16,7.5 L11.6665181,7.5 Z" id="Combined-Shape"></path>
        </g>
    </g>
</svg>