<?xml version="1.0" encoding="UTF-8"?>
<svg width="24px" height="24px" viewBox="0 0 24 24" version="1.1" xmlns="http://www.w3.org/2000/svg" xmlns:xlink="http://www.w3.org/1999/xlink">
    <!-- Generator: Sketch 50.2 (55047) - http://www.bohemiancoding.com/sketch -->
    <title>icons_outlined_bottle</title>
    <desc>Created with Sketch.</desc>
    <defs></defs>
    <g id="icons_outlined_bottle" stroke="none" stroke-width="1" fill="none" fill-rule="evenodd">
        <g id="icon17" fill="#000000">
            <g id="Group-5" transform="translate(2.000000, 3.000000)">
                <path d="M12.6659068,11.5 L14.0649522,10.1009546 C14.2149813,9.95092549 14.2992668,9.74744236 14.2992668,9.53526917 L14.2992668,6.33110611 L16.9841911,3.64618187 L15.8528202,2.51481102 L13.167896,5.19973526 L9.96373291,5.19973526 C9.75155972,5.19973526 9.54807659,5.28402073 9.39804749,5.43404984 L3.33209732,11.5 L7.5,11.5 L7.5,12.6999969 L0,12.6999969 L0,11.5 L1.64000837,11.5 C1.66253479,11.47418 1.68609353,11.4489475 1.71068459,11.4243565 L8.54951935,4.5855217 C8.92459211,4.21044894 9.43329993,3.99973526 9.96373291,3.99973526 L12.6708397,3.99973526 L15.1457134,1.52486153 L14.4386066,0.817754746 L14.79216,0.464201355 C14.9874222,0.268939209 15.3040047,0.268939209 15.4992668,0.464201355 L19.0348007,3.99973526 C19.2300629,4.19499741 19.2300629,4.5115799 19.0348007,4.70684204 L18.6812473,5.06039543 L17.9741406,4.35328865 L15.4992668,6.82816239 L15.4992668,9.53526917 C15.4992668,10.0657021 15.2885531,10.57441 14.9134804,10.9494827 L14.3629631,11.5 L16.5,11.5 L16.5,12.6999969 L10.5,12.6999969 L10.5,11.5 L12.6659068,11.5 Z M11.5,16.5 L16,16.5 L16,17.6999969 L11.5,17.6999969 L11.5,16.5 Z M8.5,14 L12.5,14 L12.5,15.1999969 L8.5,15.1999969 L8.5,14 Z M4,14 L6,14 L6,15.1999969 L4,15.1999969 L4,14 Z" id="Combined-Shape"></path>
            </g>
        </g>
    </g>
</svg>