<?xml version="1.0" encoding="UTF-8"?>
<svg width="24px" height="24px" viewBox="0 0 24 24" version="1.1" xmlns="http://www.w3.org/2000/svg" xmlns:xlink="http://www.w3.org/1999/xlink">
    <!-- Generator: Sketch 50.2 (55047) - http://www.bohemiancoding.com/sketch -->
    <title>icons_outlined_colorful_moment</title>
    <desc>Created with Sketch.</desc>
    <defs></defs>
    <g id="icons_outlined_colorful_moment" stroke="none" stroke-width="1" fill="none" fill-rule="evenodd">
        <path d="M15,3.7333333 L15,2.46666663 C14.0666667,2.16666663 13.0333333,1.99999997 12,1.99999997 C10.3333333,1.99999997 8.76666667,2.39999997 7.36666667,3.1333333 L12.0333333,7.79999997 C12.0333333,7.79999997 12.0333333,7.79999997 12.0333333,7.79999997 L14.0666667,9.8333333 C14.6333333,10.3666666 14.9666667,11.1333333 14.9666667,12 L14.9666667,9.06666663 L9.5,3.56666663 C10.3,3.3333333 11.1333333,3.19999997 12,3.19999997 C13.0666667,3.19999997 14.0666667,3.36666663 15,3.7333333 Z" id="Shape" fill="#FA5151" fill-rule="nonzero"></path>
        <path d="M8.26666667,4.0333333 L7.36666667,3.1333333 C6.5,3.59999997 5.66666667,4.19999997 4.93333333,4.9333333 C3.76666667,6.09999997 2.93333333,7.49999997 2.46666667,8.99999997 L9.06666667,8.99999997 C9.06666667,8.99999997 9.06666667,8.99999997 9.06666667,8.99999997 L11.9666667,8.99999997 C12.7333333,8.99999997 13.5333333,9.26666663 14.1333333,9.86666663 L12.0666667,7.79999997 L4.26666667,7.79999997 C4.66666667,7.06666663 5.16666667,6.39999997 5.76666667,5.76666663 C6.53333333,5.0333333 7.36666667,4.4333333 8.26666667,4.0333333 Z" id="Shape" fill="#FA9D3B" fill-rule="nonzero"></path>
        <path d="M3.73333333,8.99999997 L2.46666667,8.99999997 C2.16666667,9.9333333 2,10.9666666 2,12 C2,13.6666666 2.4,15.2333333 3.13333333,16.6333333 L7.8,11.9666666 C7.8,11.9666666 7.8,11.9666666 7.8,11.9666666 L9.83333333,9.9333333 C10.3666667,9.36666663 11.1333333,9.0333333 12,9.0333333 L9.06666667,9.0333333 L3.56666667,14.5 C3.33333333,13.7 3.2,12.8666666 3.2,12 C3.2,10.9333333 3.4,9.9333333 3.73333333,8.99999997 Z" id="Shape" fill="#FFC300" fill-rule="nonzero"></path>
        <path d="M4.03333333,15.7333333 L3.13333333,16.6333333 C3.6,17.5 4.2,18.3333333 4.93333333,19.0666666 C6.1,20.2333333 7.5,21.0666666 9,21.5333333 L9,14.9333333 C9,14.9333333 9,14.9333333 9,14.9333333 L9,12.0333333 C9,11.2666666 9.26666667,10.4666666 9.86666667,9.86666663 L7.8,11.9333333 L7.8,19.7 C7.06666667,19.3 6.4,18.8 5.76666667,18.2 C5.03333333,17.4666666 4.43333333,16.6333333 4.03333333,15.7333333 Z" id="Shape" fill="#91D300" fill-rule="nonzero"></path>
        <path d="M9,20.2666666 L9,21.5333333 C9.93333333,21.8333333 10.9666667,22 12,22 C13.6666667,22 15.2333333,21.6 16.6333333,20.8666666 L11.9666667,16.2 C11.9666667,16.2 11.9666667,16.2 11.9666667,16.2 L9.93333333,14.1666666 C9.36666667,13.6333333 9.03333333,12.8666666 9.03333333,12 L9.03333333,14.9333333 L14.5333333,20.4333333 C13.7333333,20.6666666 12.9,20.8 12.0333333,20.8 C10.9333333,20.8 9.93333333,20.6 9,20.2666666 Z" id="Shape" fill="#00C777" fill-rule="nonzero"></path>
        <path d="M15.7333333,19.9666666 L16.6333333,20.8666666 C17.5,20.4 18.3333333,19.8 19.0666667,19.0666666 C20.2333333,17.9 21.0666667,16.5 21.5333333,15 L14.9333333,15 C14.9333333,15 14.9333333,15 14.9333333,15 L12.0333333,15 C11.2666667,15 10.4666667,14.7333333 9.86666667,14.1333333 L11.9333333,16.2 L19.7,16.2 C19.3,16.9333333 18.8,17.6 18.2,18.2333333 C17.4666667,18.9666666 16.6333333,19.5333333 15.7333333,19.9666666 Z" id="Shape" fill="#10AEFF" fill-rule="nonzero"></path>
        <path d="M20.2666667,15 L21.5333333,15 C21.8333333,14.0666666 22,13.0333333 22,12 C22,10.3333333 21.6,8.76666663 20.8666667,7.36666663 L16.2,12.0333333 C16.2,12.0333333 16.2,12.0333333 16.2,12.0333333 L14.1666667,14.0666666 C13.6333333,14.6333333 12.8666667,14.9666666 12,14.9666666 L14.9333333,14.9666666 L20.4333333,9.46666663 C20.6666667,10.2666666 20.8,11.1 20.8,11.9666666 C20.8,13.0666666 20.6,14.0666666 20.2666667,15 Z" id="Shape" fill="#2782D7" fill-rule="nonzero"></path>
        <path d="M19.9666667,8.26666663 L20.8666667,7.36666663 C20.4,6.49999997 19.8,5.66666663 19.0666667,4.9333333 C17.9,3.76666663 16.5,2.9333333 15,2.46666663 L15,9.06666663 C15,9.06666663 15,9.06666663 15,9.06666663 L15,11.9666666 C15,12.7333333 14.7333333,13.5333333 14.1333333,14.1333333 L16.2,12.0666666 L16.2,4.26666663 C16.9333333,4.66666663 17.6,5.16666663 18.2333333,5.76666663 C18.9666667,6.5333333 19.5666667,7.36666663 19.9666667,8.26666663 Z" id="Shape" fill="#6467F0" fill-rule="nonzero"></path>
    </g>
</svg>