<?xml version="1.0" encoding="UTF-8"?>
<svg width="24px" height="24px" viewBox="0 0 24 24" version="1.1" xmlns="http://www.w3.org/2000/svg" xmlns:xlink="http://www.w3.org/1999/xlink">
    <!-- Generator: Sketch 50.2 (55047) - http://www.bohemiancoding.com/sketch -->
    <title>icons_outlined_news</title>
    <desc>Created with Sketch.</desc>
    <defs></defs>
    <g id="icons_outlined_news" stroke="none" stroke-width="1" fill="none" fill-rule="evenodd">
        <g id="icon27" fill="#000000" fill-rule="nonzero">
            <path d="M7.70239063,9.21636253 L7.69448142,6.44754449 L4.55460409,7.28041204 C4.22796318,7.36621407 4.034634,7.69729175 4.12025967,8.01607695 L4.96165106,11.1262144 L7.39385462,9.74731612 C7.58513439,9.63325809 7.7023882,9.4294304 7.70239063,9.21636253 Z M7.9986841,10.783765 L4.20737991,12.9332694 L4.00533563,12.1864285 L2.96161915,8.32840847 C2.70273093,7.36457644 3.28102335,6.37424628 4.24833424,6.12015488 L8.89003406,4.88891955 L8.89225529,5.66651828 L8.90238818,9.21464862 C8.90238818,9.85834984 8.55662703,10.4556933 7.9986841,10.783765 Z M7.39864853,14.3148855 L4.96119483,12.9330107 L4.12054049,16.032347 C4.034634,16.3521739 4.22796318,16.6832516 4.55600077,16.7694223 L7.69448142,17.6019208 L7.70238776,14.8341084 C7.70213138,14.6196315 7.58550257,14.4197683 7.39864853,14.3148855 Z M8.90238818,14.834817 L8.89003406,19.1605461 L8.13842448,18.9611777 L4.24973092,17.9296795 C3.28102335,17.6752194 2.70273093,16.6848892 2.96200293,15.7196354 L4.20783582,11.1264729 L4.88042854,11.5077884 L7.98823126,13.269713 C8.55223118,13.586272 8.90238818,14.1870378 8.90238818,14.834817 Z M11.6913538,17.1180947 L9.2742709,18.5085215 L11.5608048,20.7697042 C11.8031739,21.0093861 12.1968261,21.0093861 12.4399536,20.7689556 L14.7346001,18.507797 L12.3193931,17.1184493 C12.1202254,17.0046231 11.8842409,17.0047082 11.6913538,17.1180947 Z M12.9160721,16.0773081 L16.7011453,18.2546699 L16.1390068,18.8086046 L13.2829801,21.6229492 C12.5730875,22.3249711 11.4269125,22.3249711 10.7170199,21.6229492 L7.31024458,18.2539454 L7.99307738,17.8611459 L11.0880509,16.0807939 C11.6496137,15.7505937 12.3454203,15.7505937 12.9160721,16.0773081 Z M16.2976094,14.823085 L16.3055186,17.591903 L19.4453959,16.7590355 C19.7720368,16.6732335 19.965366,16.3421558 19.8798433,16.0237507 L19.0388049,12.9229928 L16.6061461,14.3021491 C16.4154988,14.4158318 16.2976118,14.6192978 16.2976094,14.823085 Z M16.0013159,13.2657007 L19.7921642,11.1164548 L19.9945614,11.862657 L21.0383808,15.7110391 C21.2972691,16.6748711 20.7189767,17.6652013 19.7516658,17.9192927 L15.1099659,19.150528 L15.1077447,18.3729293 L15.0976118,14.8247989 C15.0976118,14.1890258 15.4451728,13.5927141 16.0013159,13.2657007 Z M16.6013515,9.73458017 L19.0388052,11.1164549 L19.8794595,8.01711867 C19.965366,7.69729175 19.7720368,7.36621407 19.4439992,7.28004336 L16.3055186,6.44754484 L16.2976122,9.2153573 C16.2978686,9.42983414 16.4144974,9.62969736 16.6013515,9.73458017 Z M15.0976118,9.21464862 L15.1099659,4.88891955 L15.8615755,5.08828795 L19.7502691,6.1197862 C20.7189767,6.37424628 21.2972691,7.36457644 21.0379971,8.3298303 L19.7921642,12.9229928 L19.1195715,12.5416773 L16.0117687,10.7797527 C15.4477688,10.4631937 15.0976118,9.86242786 15.0976118,9.21464862 Z M11.6913538,6.93137094 C11.8833979,7.04426169 12.1166021,7.04426169 12.3086462,6.93137094 L14.7257291,5.54094413 L12.4391952,3.27976142 C12.1968261,3.04007953 11.8031739,3.04007953 11.5608048,3.27976142 L9.2742709,5.54094413 L11.6913538,6.93137094 Z M7.31024458,5.79552025 L10.7170199,2.42651643 C11.4269125,1.72449452 12.5730875,1.72449452 13.2829801,2.42651643 L16.6897554,5.79552025 L16.0069226,6.18831979 L12.9119491,7.96867173 C12.3503026,8.29892116 11.652848,8.29945204 11.0907648,7.97026436 L7.31024458,5.79552025 Z" id="Combined-Shape"></path>
        </g>
    </g>
</svg>