<?xml version="1.0" encoding="UTF-8"?>
<svg width="24px" height="24px" viewBox="0 0 24 24" version="1.1" xmlns="http://www.w3.org/2000/svg" xmlns:xlink="http://www.w3.org/1999/xlink">
    <!-- Generator: Sketch 50.2 (55047) - http://www.bohemiancoding.com/sketch -->
    <title>icons_outlined_nearby</title>
    <desc>Created with Sketch.</desc>
    <defs></defs>
    <g id="icons_outlined_nearby" stroke="none" stroke-width="1" fill="none" fill-rule="evenodd">
        <g id="icon16" fill="#000000" fill-rule="nonzero">
            <path d="M7,5.8 C7.71797017,5.8 8.3,5.21797017 8.3,4.5 C8.3,3.78202983 7.71797017,3.2 7,3.2 C6.28202983,3.2 5.7,3.78202983 5.7,4.5 C5.7,5.21797017 6.28202983,5.8 7,5.8 Z M7,7 C5.61928813,7 4.5,5.88071187 4.5,4.5 C4.5,3.11928813 5.61928813,2 7,2 C8.38071187,2 9.5,3.11928813 9.5,4.5 C9.5,5.88071187 8.38071187,7 7,7 Z M17,5.8 C17.7179702,5.8 18.3,5.21797017 18.3,4.5 C18.3,3.78202983 17.7179702,3.2 17,3.2 C16.2820298,3.2 15.7,3.78202983 15.7,4.5 C15.7,5.21797017 16.2820298,5.8 17,5.8 Z M17,7 C15.6192881,7 14.5,5.88071187 14.5,4.5 C14.5,3.11928813 15.6192881,2 17,2 C18.3807119,2 19.5,3.11928813 19.5,4.5 C19.5,5.88071187 18.3807119,7 17,7 Z M6.07829667,20.8 L7.92170333,20.8 L9.06971477,10.0852265 C9.07274773,10.0569189 9.07426745,10.0284696 9.07426745,10 C9.07426745,9.5581722 8.71609525,9.2 8.27426745,9.2 L5.72573255,9.2 C5.69726295,9.2 5.66881364,9.20151972 5.64050605,9.20455268 C5.20119262,9.25162197 4.88321593,9.64591307 4.93028523,10.0852265 L6.07829667,20.8 Z M5.72573255,8 L8.27426745,8 C9.37883695,8 10.2742675,8.8954305 10.2742675,10 C10.2742675,10.071174 10.2704681,10.1422973 10.2628858,10.2130662 L9.09572859,21.1065331 C9.04128507,21.6146727 8.61246731,22 8.10141944,22 L5.89858056,22 C5.38753269,22 4.95871493,21.6146727 4.90427141,21.1065331 L3.73711424,10.2130662 C3.619441,9.11478268 4.41438274,8.12905493 5.5126663,8.01138169 C5.58343527,8.0037993 5.65455854,8 5.72573255,8 Z M17.9217033,20.8 L19.0697148,10.0852265 C19.0727477,10.0569189 19.0742675,10.0284696 19.0742675,10 C19.0742675,9.5581722 18.7160953,9.2 18.2742675,9.2 L15.7257325,9.2 C15.6972629,9.2 15.6688136,9.20151972 15.640506,9.20455268 C15.2011926,9.25162197 14.8832159,9.64591307 14.9302852,10.0852265 L16.0782967,20.8 L17.9217033,20.8 Z M15.7257325,8 L18.2742675,8 C19.378837,8 20.2742675,8.8954305 20.2742675,10 C20.2742675,10.071174 20.2704681,10.1422973 20.2628858,10.2130662 L19.0957286,21.1065331 C19.0412851,21.6146727 18.6124673,22 18.1014194,22 L15.8985806,22 C15.3875327,22 14.9587149,21.6146727 14.9042714,21.1065331 L13.7371142,10.2130662 C13.619441,9.11478268 14.4143827,8.12905493 15.5126663,8.01138169 C15.5834353,8.0037993 15.6545585,8 15.7257325,8 Z" id="Combined-Shape"></path>
        </g>
    </g>
</svg>