<?xml version="1.0" encoding="UTF-8"?>
<svg width="24px" height="24px" viewBox="0 0 24 24" version="1.1" xmlns="http://www.w3.org/2000/svg" xmlns:xlink="http://www.w3.org/1999/xlink">
    <!-- Generator: Sketch 50.2 (55047) - http://www.bohemiancoding.com/sketch -->
    <title>icons_outlined_miniprogram</title>
    <desc>Created with Sketch.</desc>
    <defs></defs>
    <g id="icons_outlined_miniprogram" stroke="none" stroke-width="1" fill="none" fill-rule="evenodd">
        <g id="common_icons_miniprogram" fill="#000000" fill-rule="nonzero">
            <path d="M12,22 C6.4771525,22 2,17.5228475 2,12 C2,6.4771525 6.4771525,2 12,2 C17.5228475,2 22,6.4771525 22,12 C22,17.5228475 17.5228475,22 12,22 Z M12,20.8 C16.8601058,20.8 20.8,16.8601058 20.8,12 C20.8,7.1398942 16.8601058,3.2 12,3.2 C7.1398942,3.2 3.2,7.1398942 3.2,12 C3.2,16.8601058 7.1398942,20.8 12,20.8 Z M15.1444065,12.5227636 L15.0060602,12.5242424 C14.6025042,12.5242424 14.3685997,12.241095 14.5202063,11.900002 C14.6274222,11.6498316 14.8714598,11.4527244 15.1644144,11.3876403 C16.0163954,11.1819897 16.6030299,10.5127306 16.6030299,9.72727273 C16.6030299,8.78158965 15.706221,8.00909091 14.5818178,8.00909091 C13.4574146,8.00909091 12.5606057,8.78158965 12.5606057,9.72727273 L12.5606057,14.2727273 C12.5606057,15.8404642 11.1557388,17.1 9.43030265,17.1 C7.70486651,17.1 6.29999962,15.8404642 6.29999962,14.2727273 C6.29999962,12.8991191 7.38651487,11.7283053 8.85454507,11.5060606 L8.97575719,11.5060606 C9.28606729,11.5060606 9.49999962,11.6862141 9.49999962,11.9393939 C9.50012788,11.983445 9.49930358,12.0048767 9.49485113,12.0315914 C9.48917309,12.0656597 9.47803197,12.0978451 9.46161109,12.130301 C9.35985462,12.3677328 9.09587894,12.5730472 8.81740307,12.6426628 C7.97001994,12.8472035 7.3787875,13.5133809 7.3787875,14.2727273 C7.3787875,15.2184103 8.27559639,15.9909091 9.39999962,15.9909091 C10.5244029,15.9909091 11.4212117,15.2184103 11.4212117,14.2727273 L11.4212117,9.72727273 C11.4212117,8.15953583 12.8260786,6.9 14.5515148,6.9 C16.2769509,6.9 17.6818178,8.15953583 17.6818178,9.72727273 C17.6818178,11.1157138 16.6131119,12.2673366 15.1444065,12.5227636 Z" id="Combined-Shape"></path>
        </g>
    </g>
</svg>