<?xml version="1.0" encoding="UTF-8"?>
<svg width="24px" height="24px" viewBox="0 0 24 24" version="1.1" xmlns="http://www.w3.org/2000/svg" xmlns:xlink="http://www.w3.org/1999/xlink">
    <!-- Generator: Sketch 50.2 (55047) - http://www.bohemiancoding.com/sketch -->
    <title>icons_outlined_shake</title>
    <desc>Created with Sketch.</desc>
    <defs></defs>
    <g id="icons_outlined_shake" stroke="none" stroke-width="1" fill="none" fill-rule="evenodd">
        <g id="icon29" fill="#000000" fill-rule="nonzero">
            <path d="M6.54361324,7.02698786 L6.04739017,5.17505814 C5.9053921,4.64511415 6.21995945,4.10037738 6.75193394,3.95783524 L15.45381,1.62617458 C15.9849168,1.48386493 16.5306246,1.79828528 16.6725743,2.32804864 L17.4507402,5.23220347 L17.9337031,5.10279395 C18.7339023,4.88838123 19.5564077,5.36325496 19.7708204,6.16345412 L21.5825537,12.9249349 C21.7969664,13.7251341 21.3220927,14.5476395 20.5218936,14.7620522 L20.0389306,14.8914617 L20.8170966,17.7956166 C20.9590947,18.3255606 20.6445273,18.8702973 20.1125528,19.0128395 L11.4106768,21.3445001 C10.8795699,21.4868098 10.3338622,21.1723894 10.1919125,20.6426261 L10.0245015,20.0178397 L7.73012206,21.4625507 C7.28380212,21.7435867 6.69594393,21.6296673 6.38691241,21.2022539 L2.94759264,16.4454201 C2.92904495,16.4197672 2.91172581,16.3932482 2.89569372,16.3659524 C2.61598828,15.8897347 2.77529295,15.2769379 3.25151066,14.9972325 L5.14546309,13.8848236 C4.44073295,12.0167754 4.24917849,10.4686566 4.57079969,9.24046728 C4.85666278,8.1488291 5.70990898,7.37055519 6.54361324,7.02698786 Z M7.74180379,6.8622519 C8.85501384,7.13978995 12.0332824,9.68611934 12.6281395,9.85375776 C13.2419143,10.0267274 13.3598163,12.0411694 12.1949322,12.8576244 C11.7445491,13.1732931 11.2405811,13.3415371 10.6830283,13.3623563 C10.3113265,13.3762357 9.89377347,13.3101227 9.43036936,13.1640172 L9.43570884,13.1839916 L11.2975509,20.1324807 L19.604513,17.9066369 L18.8798197,15.2020446 L18.015304,15.4336909 C17.5190582,15.5666595 17.0027934,15.301965 16.8211063,14.8214128 L14.1732015,7.81785233 C13.8802301,7.04295928 14.2709048,6.17728408 15.0457978,5.88431266 C15.0924214,5.86668521 15.1398947,5.85139265 15.1880409,5.83849191 L16.2916292,5.54278632 L15.5669359,2.83819401 L7.25997377,5.0640378 L7.74180379,6.8622519 Z M20.2113107,13.6029412 C20.3713505,13.5600587 20.4663253,13.3955576 20.4234427,13.2355178 L18.6117094,6.47403697 C18.5688269,6.31399714 18.4043258,6.2190224 18.244286,6.26190494 L15.4986238,6.9976029 C15.4889945,7.00018305 15.4794999,7.00324156 15.4701752,7.00676705 C15.3151965,7.06536134 15.2370616,7.23849638 15.2956559,7.39347499 L17.8795513,14.2277343 L20.2113107,13.6029412 Z M12.7944869,16.8326046 L16.6581903,15.7973284 L16.9687731,16.9564394 L13.1050698,17.9917156 L12.7944869,16.8326046 Z M11.0502008,10.3166606 C10.7761578,10.1326156 9.69388384,9.38402742 9.57403159,9.30207258 C9.46772108,9.22937756 9.36773936,9.16143955 9.27172895,9.09670215 C8.31215568,8.44968599 7.6062774,8.04844257 7.48551531,8.03255789 C6.95014035,7.9621363 5.96386019,8.65773322 5.73165735,9.54445661 C5.48194653,10.4980385 5.64379296,11.8060607 6.26822361,13.4612568 L6.62516201,14.4074036 L4.0489102,15.9205596 L7.2494483,20.3471406 L9.70013849,18.8073005 L7.71009072,11.3803411 L9.73565318,12.0272813 C10.4953631,12.2578066 11.0494874,12.1950555 11.506191,11.8749568 C11.7082001,11.7333708 11.8573257,11.414252 11.8808946,11.0391353 C11.8855939,10.9643431 11.8844405,10.8943502 11.8793068,10.8341018 C11.6641537,10.7209025 11.4076158,10.5566976 11.0502008,10.3166606 Z" id="Combined-Shape"></path>
        </g>
    </g>
</svg>