<?xml version="1.0" encoding="UTF-8"?>
<svg width="24px" height="24px" viewBox="0 0 24 24" version="1.1" xmlns="http://www.w3.org/2000/svg" xmlns:xlink="http://www.w3.org/1999/xlink">
    <!-- Generator: Sketch 61 (89581) - https://sketch.com -->
    <title>扫一扫</title>
    <desc>Created with Sketch.</desc>
    <g id="0619-更多相关阅读在留言下方" stroke="none" stroke-width="1" fill="none" fill-rule="evenodd">
        <g id="3.Icons/Outlined/scan" fill="#1485EE">
            <g id="icon15" transform="translate(1.000000, 1.000000)">
                <path d="M7,16.7 C6.06111593,16.7 5.3,15.9388841 5.3,15 C5.3,14.0611159 6.06111593,13.3 7,13.3 L16.6338028,13.3 C16.8820821,13.3 17.0440211,13.1732651 17.0605634,13.084507 L17.0605634,11.1126761 C17.0605634,10.3490152 17.3550844,9.61271256 17.8343662,9.14338028 C18.1872641,8.67284979 18.8086804,8.3 19.3802817,8.3 C20.302252,8.3 20.9781584,9.10263878 20.8514556,9.98514556 C20.8430761,10.0689403 20.8302733,10.2076378 20.817489,10.3674414 C20.8113661,10.4439772 20.8058863,10.5179547 20.8012143,10.5880344 C20.7904245,10.7498819 20.784507,10.8830249 20.784507,10.971831 C20.784507,11.7873716 20.8662334,12.5392539 21.0452969,13.1964222 C21.0875962,13.3656195 21.1306885,13.5117291 21.1900717,13.6935902 C21.2153683,13.7705354 21.2153683,13.7705354 21.2465101,13.8645624 C21.5512907,14.8550993 21.7,15.8402986 21.7,16.8873239 L21.6957186,17.7392739 C21.6151925,18.4640092 21.3082944,19.2093331 20.8713092,19.8209822 C20.1197935,20.9065048 18.876422,21.5814779 17.4084507,21.7 L15.5588048,21.6997512 C14.361621,21.6678263 13.1989453,21.1325568 12.3360112,20.2696226 C12.1728911,20.1065026 12.0659425,19.9594482 11.8706958,19.6593967 C11.1904888,18.8431482 10.6963013,17.8615645 10.3796382,16.7 L7,16.7 Z M11.3334819,15.5 L11.4184016,15.8948765 C11.6816336,17.1189053 12.1370555,18.1045684 12.8244759,18.9339175 C13.0152725,19.2201125 13.0998464,19.3364016 13.1845393,19.4210945 C13.8374518,20.074007 14.7122628,20.4767502 15.5774648,20.5 L17.3674132,20.5016869 C18.4309392,20.4141024 19.3445208,19.9181581 19.8889079,19.1319161 C20.2180861,18.6710666 20.4464136,18.1165571 20.5,17.6619718 L20.5,16.8873239 C20.5,15.9601489 20.3692435,15.0938872 20.1031231,14.2285364 C20.0765478,14.1488127 20.0765478,14.1488127 20.0493452,14.0660724 C19.9818164,13.8592654 19.9310081,13.6869937 19.8838153,13.4977559 C19.6774001,12.7409004 19.584507,11.8862839 19.584507,10.971831 C19.584507,10.8508239 19.5914585,10.694417 19.6038722,10.5082115 C19.6089187,10.4325139 19.6147854,10.3533128 19.6213107,10.2717471 C19.6348149,10.1029448 19.6483058,9.95679315 19.6599548,9.84478228 C19.6880941,9.64780721 19.5636249,9.5 19.3802817,9.5 C19.2251881,9.5 18.9373941,9.67267634 18.7479196,9.91693367 C18.432485,10.2323683 18.2605634,10.6621723 18.2605634,11.1126761 L18.2605634,12.8732394 L18.2567023,13.1465244 C18.1556549,13.954904 17.4591433,14.5 16.6338028,14.5 L7,14.5 C6.72385763,14.5 6.5,14.7238576 6.5,15 C6.5,15.2761424 6.72385763,15.5 7,15.5 L11.3334819,15.5 Z M15,5.3 C15.9388841,5.3 16.7,6.06111593 16.7,7 C16.7,7.93888407 15.9388841,8.7 15,8.7 L5.36619718,8.7 C5.11791795,8.7 4.95597893,8.82673488 4.93943662,8.91549296 L4.93943662,10.8873239 C4.93943662,11.6509848 4.64491558,12.3872874 4.1656338,12.8566197 C3.81273593,13.3271502 3.19131962,13.7 2.61971831,13.7 C1.69774795,13.7 1.02184162,12.8973612 1.14854439,12.0148544 C1.15692386,11.9310597 1.16972671,11.7923622 1.182511,11.6325586 C1.18863386,11.5560228 1.19411368,11.4820453 1.19878565,11.4119656 C1.20957549,11.2501181 1.21549296,11.1169751 1.21549296,11.028169 C1.21549296,10.2126284 1.13376662,9.46074608 0.954703067,8.80357775 C0.901462264,8.59061454 0.858816031,8.45201429 0.753489905,8.13543756 C0.448709327,7.14490068 0.3,6.15970139 0.3,5.11267606 L0.304281386,4.2607261 C0.384807535,3.53599076 0.691705583,2.79066693 1.12869082,2.1790178 C1.88020648,1.09349518 3.12357802,0.418522061 4.5915493,0.3 L6.44119524,0.300248756 C7.63837903,0.332173657 8.80105466,0.867443194 9.66398883,1.73037737 C9.8271089,1.89349743 9.93405755,2.04055182 10.1293042,2.34060331 C10.8095112,3.15685175 11.3036987,4.13843554 11.6203618,5.3 L15,5.3 Z M10.6665181,6.5 L10.5815984,6.10512347 C10.3183664,4.88109472 9.86294447,3.89543158 9.17552415,3.06608249 C8.98472751,2.77988753 8.9001536,2.66359841 8.81546069,2.5789055 C8.16254816,1.92599297 7.28773717,1.5232498 6.42253521,1.5 L4.63258684,1.49831307 C3.56906083,1.58589757 2.65547923,2.08184187 2.11109209,2.86808389 C1.78191385,3.32893341 1.55358643,3.88344287 1.5,4.33802817 L1.5,5.11267606 C1.5,6.03985112 1.63075647,6.90611275 1.89687686,7.77146358 C2.00627829,8.09966786 2.05629959,8.2622371 2.11618473,8.50224411 C2.32259985,9.25909958 2.41549296,10.1137161 2.41549296,11.028169 C2.41549296,11.1491761 2.40854154,11.305583 2.39612784,11.4917885 C2.39108133,11.5674861 2.38521458,11.6466872 2.37868933,11.7282529 C2.36518515,11.8970552 2.35169422,12.0432069 2.34004517,12.1552177 C2.31190587,12.3521928 2.4363751,12.5 2.61971831,12.5 C2.77481194,12.5 3.06260585,12.3273237 3.25208041,12.0830663 C3.56751503,11.7676317 3.73943662,11.3378277 3.73943662,10.8873239 L3.73943662,9.12676056 L3.74329768,8.85347559 C3.84434513,8.04509604 4.54085673,7.5 5.36619718,7.5 L15,7.5 C15.2761424,7.5 15.5,7.27614237 15.5,7 C15.5,6.72385763 15.2761424,6.5 15,6.5 L10.6665181,6.5 Z" id="图标颜色"></path>
            </g>
        </g>
    </g>
</svg>