<?xml version="1.0" encoding="UTF-8"?>
<svg width="24px" height="24px" viewBox="0 0 24 24" version="1.1" xmlns="http://www.w3.org/2000/svg" xmlns:xlink="http://www.w3.org/1999/xlink">
    <!-- Generator: Sketch 52.2 (67145) - http://www.bohemiancoding.com/sketch -->
    <title>icons_outlined_one-day-video</title>
    <desc>Created with Sketch.</desc>
    <g id="icons_outlined_one-day-video" stroke="none" stroke-width="1" fill="none" fill-rule="evenodd">
        <g id="Group" fill="#000000" fill-rule="nonzero">
            <path d="M17.6873454,8.84990374 C17.4864108,8.48769087 17.6171527,8.03116965 17.9793656,7.83023506 C18.3415785,7.62930047 18.7980997,7.76004236 18.9990343,8.12225523 C20.7166743,11.2185432 20.1976513,15.1168994 17.6568542,17.6576965 C14.5326599,20.7818908 9.46734008,20.7818908 6.34314575,17.6576965 C3.21895142,14.5335021 3.21895142,9.46818229 6.34314575,6.34398796 C8.88394279,3.80319092 12.782299,3.28416787 15.878587,5.00180794 C16.2407999,5.20274253 16.3715417,5.65926375 16.1706071,6.02147662 C15.9696726,6.38368949 15.5131513,6.51443138 15.1509385,6.31349679 C12.6362291,4.91848261 9.46818083,5.34027322 7.40380592,7.40464813 C4.86539803,9.94305603 4.86539803,14.0586284 7.40380592,16.5970363 C9.94221382,19.1354442 14.0577862,19.1354442 16.5961941,16.5970363 C18.660569,14.5326614 19.0823596,11.3646131 17.6873454,8.84990374 Z" id="Path"></path>
        </g>
    </g>
</svg>