<?xml version="1.0" encoding="UTF-8"?>
<svg width="24px" height="24px" viewBox="0 0 24 24" version="1.1" xmlns="http://www.w3.org/2000/svg" xmlns:xlink="http://www.w3.org/1999/xlink">
    <!-- Generator: Sketch 50.2 (55047) - http://www.bohemiancoding.com/sketch -->
    <title>icons_outlined_setting</title>
    <desc>Created with Sketch.</desc>
    <defs></defs>
    <g id="icons_outlined_setting" stroke="none" stroke-width="1" fill="none" fill-rule="evenodd">
        <g id="icon26" fill="#000000" fill-rule="nonzero">
            <path d="M12.5630683,3.2 L11.4369317,3.2 L10.7924052,5.77810602 L10.1451926,5.97714227 C9.76740015,6.0933242 9.40218123,6.24492893 9.05375494,6.42967378 L8.45518089,6.74705359 L6.17560975,5.3793109 L5.3793109,6.17560975 L6.74705359,8.45518089 L6.42967378,9.05375494 C6.24492893,9.40218123 6.0933242,9.76740015 5.97714227,10.1451926 L5.77810602,10.7924052 L3.2,11.4369317 L3.2,12.5630683 L5.77810602,13.2075948 L5.97714227,13.8548074 C6.0933242,14.2325999 6.24492893,14.5978188 6.42967378,14.9462451 L6.74705359,15.5448191 L5.3793109,17.8243903 L6.17560975,18.6206891 L8.45518089,17.2529464 L9.05375494,17.5703262 C9.40218123,17.7550711 9.76740015,17.9066758 10.1451926,18.0228577 L10.7924052,18.221894 L11.4369317,20.8 L12.5630683,20.8 L13.2075948,18.221894 L13.8548074,18.0228577 C14.2325999,17.9066758 14.5978188,17.7550711 14.9462451,17.5703262 L15.5448191,17.2529464 L17.8243903,18.6206891 L18.6206891,17.8243903 L17.2529464,15.5448191 L17.5703262,14.9462451 C17.7550711,14.5978188 17.9066758,14.2325999 18.0228577,13.8548074 L18.221894,13.2075948 L20.8,12.5630683 L20.8,11.4369317 L18.221894,10.7924052 L18.0228577,10.1451926 C17.9066758,9.76740015 17.7550711,9.40218123 17.5703262,9.05375494 L17.2529464,8.45518089 L18.6206891,6.17560975 L17.8243903,5.3793109 L15.5448191,6.74705359 L14.9462451,6.42967378 C14.5978188,6.24492893 14.2325999,6.0933242 13.8548074,5.97714227 L13.2075948,5.77810602 L12.5630683,3.2 Z M15.5083849,5.36948567 L17.3408974,4.26997816 C17.7343732,4.03389271 18.2380315,4.09589589 18.5624999,4.42036431 L19.5796357,5.43750007 C19.9041041,5.76196849 19.9661073,6.26562685 19.7300218,6.6591026 L18.6305143,8.49161512 C18.8491215,8.90390529 19.0303999,9.33902209 19.1698454,9.79246134 L21.2425356,10.3106339 C21.6877026,10.4219257 22,10.8219088 22,11.2807764 L22,12.7192236 C22,13.1780912 21.6877026,13.5780743 21.2425356,13.6893661 L19.1698454,14.2075387 C19.0303999,14.6609779 18.8491215,15.0960947 18.6305143,15.5083849 L19.7300218,17.3408974 C19.9661073,17.7343732 19.9041041,18.2380315 19.5796357,18.5624999 L18.5624999,19.5796357 C18.2380315,19.9041041 17.7343732,19.9661073 17.3408974,19.7300218 L15.5083849,18.6305143 C15.0960947,18.8491215 14.6609779,19.0303999 14.2075387,19.1698454 L13.6893661,21.2425356 C13.5780743,21.6877026 13.1780912,22 12.7192236,22 L11.2807764,22 C10.8219088,22 10.4219257,21.6877026 10.3106339,21.2425356 L9.79246134,19.1698454 C9.33902209,19.0303999 8.90390529,18.8491215 8.49161512,18.6305143 L6.6591026,19.7300218 C6.26562685,19.9661073 5.76196849,19.9041041 5.43750007,19.5796357 L4.42036431,18.5624999 C4.09589589,18.2380315 4.03389271,17.7343732 4.26997816,17.3408974 L5.36948567,15.5083849 C5.1508785,15.0960947 4.9696001,14.6609779 4.83015464,14.2075387 L2.75746437,13.6893661 C2.31229737,13.5780743 2,13.1780912 2,12.7192236 L2,11.2807764 C2,10.8219088 2.31229737,10.4219257 2.75746437,10.3106339 L4.83015464,9.79246134 C4.9696001,9.33902209 5.1508785,8.90390529 5.36948567,8.49161512 L4.26997816,6.6591026 C4.03389271,6.26562685 4.09589589,5.76196849 4.42036431,5.43750007 L5.43750007,4.42036431 C5.76196849,4.09589589 6.26562685,4.03389271 6.6591026,4.26997816 L8.49161512,5.36948567 C8.90390529,5.1508785 9.33902209,4.9696001 9.79246134,4.83015464 L10.3106339,2.75746437 C10.4219257,2.31229737 10.8219088,2 11.2807764,2 L12.7192236,2 C13.1780912,2 13.5780743,2.31229737 13.6893661,2.75746437 L14.2075387,4.83015464 C14.6609779,4.9696001 15.0960947,5.1508785 15.5083849,5.36948567 Z M12,14.8 C13.5463973,14.8 14.8,13.5463973 14.8,12 C14.8,10.4536027 13.5463973,9.2 12,9.2 C10.4536027,9.2 9.2,10.4536027 9.2,12 C9.2,13.5463973 10.4536027,14.8 12,14.8 Z M12,16 C9.790861,16 8,14.209139 8,12 C8,9.790861 9.790861,8 12,8 C14.209139,8 16,9.790861 16,12 C16,14.209139 14.209139,16 12,16 Z" id="Combined-Shape"></path>
        </g>
    </g>
</svg>