<?xml version="1.0" encoding="UTF-8"?>
<svg width="24px" height="24px" viewBox="0 0 24 24" version="1.1" xmlns="http://www.w3.org/2000/svg" xmlns:xlink="http://www.w3.org/1999/xlink">
    <!-- Generator: Sketch 52.2 (67145) - http://www.bohemiancoding.com/sketch -->
    <title>支付@svg</title>
    <desc>Created with Sketch.</desc>
    <g id="支付" stroke="none" stroke-width="1" fill="none" fill-rule="evenodd">
        <g>
            <path d="M5.71452777,20.3299346 L8.72050313,18.8900907 L8.940181,18.953637 C9.91579703,19.235854 10.9457078,19.3816839 12,19.3816839 C17.2112534,19.3816839 21.4,15.8250854 21.4,11.4908419 C21.4,7.15659852 17.2112534,3.6 12,3.6 C6.78874659,3.6 2.6,7.15659852 2.6,11.4908419 C2.6,13.7804763 3.77156966,15.9190684 5.79104467,17.4129286 L6.07581987,17.6235845 L5.71452777,20.3299346 Z" id="Combined-Shape" stroke="#00C777" stroke-width="1.2"></path>
            <path d="M20.5764502,7.63293457 L9.34674091,14.3506596 L9.27360869,14.3938928 C9.18330148,14.4399517 9.08163661,14.4670785 8.97387739,14.4670785 C8.72373196,14.4670785 8.50627441,14.3266411 8.39214383,14.1192346 L8.34865232,14.0220305 L6.52782626,9.94680405 C6.50815812,9.90244054 6.49596942,9.85214306 6.49596942,9.80325842 C6.49596942,9.61563186 6.64528103,9.46360912 6.82921965,9.46360912 C6.90456799,9.46360912 6.97299094,9.48875787 7.02894817,9.53114339 L9.17720712,11.0912131 C9.33372116,11.195764 9.52181501,11.2573643 9.72348264,11.2573643 C9.84343057,11.2573643 9.9583922,11.2347587 10.0650434,11.1949163 L19.9139421,6.78541667" id="Symbol" fill="#00C777" fill-rule="evenodd"></path>
        </g>
    </g>
</svg>