<?xml version="1.0" encoding="UTF-8"?>
<svg width="24px" height="24px" viewBox="0 0 24 24" version="1.1" xmlns="http://www.w3.org/2000/svg" xmlns:xlink="http://www.w3.org/1999/xlink">
    <!-- Generator: Sketch 55.2 (78181) - https://sketchapp.com -->
    <title>3.Icons/DarkMode/Outlined/Colorful/Favorites</title>
    <desc>Created with Sketch.</desc>
    <g id="3.Icons/DarkMode/Outlined/Colorful/Favorites" stroke="none" stroke-width="1" fill="none" fill-rule="evenodd">
        <g id="图标" fill-rule="nonzero">
            <path d="M19.0184296,8.84576925 C19.1153301,8.39238573 19.1933758,7.8854458 19.2525667,7.32494947 L12.2583126,3.2449679 C12.1555512,3.18502375 11.8444935,3.18499766 11.7416874,3.2449679 L4.74743327,7.32494947 L12,11.5122208 C12.6984327,11.6353029 13.3374523,11.728245 13.9170588,11.7910471 L12.6,12.5514513 L11.4,12.5514513 L4.2,8.39452937 L3,7.95232187 C3,7.40153894 3.38671875,6.72945521 3.86295784,6.45164908 L11.1370422,2.20843322 C11.6136406,1.93041745 12.3867187,1.93062709 12.8629578,2.20843322 L20.1370422,6.45164908 C20.6136406,6.72966484 21,7.40621302 21,7.95232187 L19.8,8.39452937 L19.0184296,8.84576925 L19.0184296,8.84576925 Z" id="Mask" fill="#1196FF"></path>
            <path d="M11.5276276,20.9202175 L12.6,20.9657967 L19.5323969,16.9218985 C19.6403321,16.8589364 19.8,16.5813289 19.8,16.4577604 L19.8,8.39452937 L12.6,12.5514513 L11.951787,13.030933 L12.0015436,12.1054687 L12.0015436,11.5068824 L20.4001756,6.65277422 C20.7480922,6.9853445 21,7.51135667 21,7.95232187 L21,16.4577604 C21,17.0085434 20.6132812,17.6806271 20.1370422,17.9584332 L12.8629578,22.2016491 C12.4811046,22.4243968 11.9089322,22.4685433 11.4515949,22.334412 L11.5276276,20.9202175 Z" id="Combined-Shape" fill="#CA4141"></path>
            <path d="M12.6000004,22.3183663 C12.1345854,22.4717337 11.5331421,22.4327074 11.1370422,22.2016491 L3.86295784,17.9584332 C3.38635938,17.6804175 3,17.0038693 3,16.4577604 L3,7.95232187 C3,7.87716415 3.00720081,7.79974778 3.0208473,7.72138276 L4.2,8.40159224 L4.2,16.4577604 C4.2,16.5788746 4.36122385,16.859844 4.46760307,16.9218985 L11.4,20.9657967 L11.4,12.5550053 L11.4057427,12.5583181 L12.0028715,12.1007385 L12.6000004,12.5583181 L12.6000004,22.3183663 Z" id="Combined-Shape" fill="#CC9C00"></path>
        </g>
    </g>
</svg>