<?xml version="1.0" encoding="UTF-8"?>
<svg width="22px" height="22px" viewBox="0 0 22 22" version="1.1" xmlns="http://www.w3.org/2000/svg" xmlns:xlink="http://www.w3.org/1999/xlink">
    <!-- Generator: Sketch 53.2 (72643) - https://sketchapp.com -->
    <title>expression</title>
    <desc>Created with Sketch.</desc>
    <g id="====slice====" stroke="none" stroke-width="1" fill="none" fill-rule="evenodd">
        <g id="Icons/Tint-Color/Black-Copy" transform="translate(1.000000, 1.000000)" fill="#797979">
            <path d="M10,20 C4.4771525,20 0,15.5228475 0,10 C0,4.4771525 4.4771525,0 10,0 C15.5228475,0 20,4.4771525 20,10 C20,15.5228475 15.5228475,20 10,20 Z M10,18.8 C14.8601058,18.8 18.8,14.8601058 18.8,10 C18.8,5.1398942 14.8601058,1.2 10,1.2 C5.1398942,1.2 1.2,5.1398942 1.2,10 C1.2,14.8601058 5.1398942,18.8 10,18.8 Z M4,10.5 L16,10.5 C16,13.8137085 13.3137085,16.5 10,16.5 C6.6862915,16.5 4,13.8137085 4,10.5 Z M10,15.3 C12.2366073,15.3 14.1159277,13.7702727 14.648779,11.7 L5.35122098,11.7 C5.88407233,13.7702727 7.76339268,15.3 10,15.3 Z M6.5,8.5 C5.67157288,8.5 5,7.82842712 5,7 C5,6.17157288 5.67157288,5.5 6.5,5.5 C7.32842712,5.5 8,6.17157288 8,7 C8,7.82842712 7.32842712,8.5 6.5,8.5 Z M13.5,8.5 C12.6715729,8.5 12,7.82842712 12,7 C12,6.17157288 12.6715729,5.5 13.5,5.5 C14.3284271,5.5 15,6.17157288 15,7 C15,7.82842712 14.3284271,8.5 13.5,8.5 Z" id="图标颜色"></path>
        </g>
    </g>
</svg>