<?xml version="1.0" encoding="UTF-8"?>
<svg width="29px" height="29px" viewBox="0 0 29 29" version="1.1" xmlns="http://www.w3.org/2000/svg" xmlns:xlink="http://www.w3.org/1999/xlink">
    <!-- Generator: Sketch 61 (89581) - https://sketch.com -->
    <title>Rectangle</title>
    <desc>Created with Sketch.</desc>
    <g id="定稿" stroke="none" stroke-width="1" fill="none" fill-rule="evenodd">
        <g id="加载失败" transform="translate(-256.000000, -601.000000)">
            <g id="Group-5" transform="translate(256.000000, 601.000000)">
                <path d="M20.7792006,17.6363263 C21.2436557,16.5162457 21.5,15.2880591 21.5,14 C21.5,8.75329488 17.2467051,4.5 12,4.5 C6.75329488,4.5 2.5,8.75329488 2.5,14 C2.5,19.2467051 6.75329488,23.5 12,23.5 C13.2880591,23.5 14.5162457,23.2436557 15.6363263,22.7792006" id="Path" stroke="#000000" stroke-width="1.2" stroke-linecap="round" fill-rule="nonzero" transform="translate(12.000000, 14.000000) rotate(-15.000000) translate(-12.000000, -14.000000) "></path>
                <path d="M17.4699774,14.6129032 C17.4699774,17.6700666 15.0075435,20.1483871 11.9699774,20.1483871 C9.00305237,20.1483871 6.58482028,17.7839969 6.47394898,14.8252306 L6.46997742,14.6129032 L17.4699774,14.6129032 Z M16.4073094,15.5739247 L7.53131478,15.5739247 L7.53849829,15.6079992 C7.97524458,17.5945551 9.6925385,19.0883282 11.7619019,19.1826335 L11.9699774,19.1873656 C14.1274226,19.1873656 15.9349763,17.6697286 16.3954572,15.6341104 L16.4073094,15.5739247 Z M8.76164409,10 C9.52103562,10 10.1366441,10.6195801 10.1366441,11.383871 C10.1366441,12.1481618 9.52103562,12.7677419 8.76164409,12.7677419 C8.00225255,12.7677419 7.38664409,12.1481618 7.38664409,11.383871 C7.38664409,10.6195801 8.00225255,10 8.76164409,10 Z M15.1783108,10 C15.9377023,10 16.5533108,10.6195801 16.5533108,11.383871 C16.5533108,12.1481618 15.9377023,12.7677419 15.1783108,12.7677419 C14.4189192,12.7677419 13.8033108,12.1481618 13.8033108,11.383871 C13.8033108,10.6195801 14.4189192,10 15.1783108,10 Z" id="Combined-Shape" fill="#000000" fill-rule="nonzero"></path>
                <line x1="20" y1="19" x2="27" y2="19" id="Path-7" stroke="#000000" stroke-width="1.2" stroke-linecap="round"></line>
                <line x1="23.5" y1="15.5" x2="23.5" y2="22.5" id="Path-7-Copy" stroke="#000000" stroke-width="1.2" stroke-linecap="round"></line>
            </g>
        </g>
    </g>
</svg>