<?xml version="1.0" encoding="UTF-8"?>
<svg width="24px" height="24px" viewBox="0 0 24 24" version="1.1" xmlns="http://www.w3.org/2000/svg" xmlns:xlink="http://www.w3.org/1999/xlink">
    <!-- Generator: Sketch 50.2 (55047) - http://www.bohemiancoding.com/sketch -->
    <title>icons_outlined_delete</title>
    <desc>Created with Sketch.</desc>
    <defs></defs>
    <g id="icons_outlined_delete" stroke="none" stroke-width="1" fill="none" fill-rule="evenodd">
        <g id="icon39" fill="#000000" fill-rule="nonzero">
            <path d="M6.77355253,6.39999695 L7.58590583,20.0475349 C7.61106164,20.4701525 7.96112672,20.8 8.38449235,20.8 L15.6155076,20.8 C16.0388733,20.8 16.3889384,20.4701525 16.4140942,20.0475349 L17.2264475,6.39999695 L6.77355253,6.39999695 Z M18.4285714,6.399997 L17.611974,20.1188373 C17.5490844,21.1753813 16.6739217,22 15.6155076,22 L8.38449235,22 C7.32607828,22 6.45091556,21.1753813 6.38802605,20.1188373 L5.57142856,6.399997 L3.5,6.399997 L3.5,5.69999695 C3.5,5.42385457 3.72385763,5.19999695 4,5.19999695 L20,5.19999695 C20.2761424,5.19999695 20.5,5.42385457 20.5,5.69999695 L20.5,6.399997 L18.4285714,6.399997 Z M14,3.00002729 C14.2761424,3.00002729 14.5,3.22388491 14.5,3.50002729 L14.5,4.20002423 L9.5,4.20002423 L9.5,3.50002729 C9.5,3.22388491 9.72385763,3.00002729 10,3.00002729 L14,3.00002729 Z M9.5,9 L10.7000122,9 L11.2000122,18 L10,18 L9.5,9 Z M13.2999878,9 L14.5,9 L14,18 L12.7999878,18 L13.2999878,9 Z" id="Combined-Shape"></path>
        </g>
    </g>
</svg>