<?xml version="1.0" encoding="UTF-8"?>
<svg width="24px" height="24px" viewBox="0 0 24 24" version="1.1" xmlns="http://www.w3.org/2000/svg" xmlns:xlink="http://www.w3.org/1999/xlink">
    <!-- Generator: Sketch 50.2 (55047) - http://www.bohemiancoding.com/sketch -->
    <title>icons_outlined_search-logo</title>
    <desc>Created with Sketch.</desc>
    <defs></defs>
    <g id="icons_outlined_search-logo" stroke="none" stroke-width="1" fill="none" fill-rule="evenodd">
        <g id="icons_outlined_searchlogo" transform="translate(1.000000, 1.000000)" fill="#000000" fill-rule="nonzero">
            <path d="M11.6373899,8.54479545 L20.9604628,7.36809693 C21.2344317,7.33351833 21.4845588,7.52758248 21.5191374,7.80155134 C21.5208888,7.81542783 21.5220572,7.82937169 21.5226394,7.84334614 L21.5780895,9.17414741 C21.5895854,9.45005039 21.3752412,9.68303326 21.0993382,9.69452922 C21.0908022,9.69488489 21.0822585,9.69502172 21.0737155,9.69493957 L11.6951925,9.60476147 C11.4209384,9.60212441 11.2,9.37905135 11.2,9.10478458 L11.2,9.04085994 C11.2,8.78892589 11.3874388,8.57634267 11.6373899,8.54479545 Z M8.58889369,6.68727931 L9.78095446,1.15271146 C9.83909791,0.882759704 10.1050716,0.711055151 10.3750234,0.769198606 C10.3950038,0.773502074 10.4147015,0.779026603 10.4340057,0.785741098 L11.6873658,1.22169246 C11.9481814,1.31241093 12.0860724,1.59738559 11.9953539,1.85820117 C11.9908654,1.87110566 11.9858498,1.88382075 11.9803198,1.89631442 L9.69517791,7.05904251 C9.5862601,7.30511607 9.30212214,7.42084886 9.05226824,7.3209073 L8.89198924,7.2567957 C8.66561539,7.16624616 8.53755757,6.92562558 8.58889369,6.68727931 Z M5.75548926,9.60779843 L1.0549756,9.69026359 C0.778875707,9.69510744 0.551125802,9.47521098 0.546281944,9.1991111 C0.545977009,9.18172976 0.546578751,9.16434436 0.548084721,9.14702571 L0.650933755,7.96426181 C0.674855863,7.68915757 0.917264616,7.48553422 1.19236886,7.50945633 C1.21302343,7.51125238 1.23354629,7.51433135 1.25381859,7.51867541 L5.86275028,8.50630363 C6.11172618,8.55965561 6.28084077,8.79159234 6.25550433,9.0449567 L6.24423728,9.15762722 C6.21901073,9.40989266 6.00897388,9.60335134 5.75548926,9.60779843 Z M7.78274246,12.663932 L5.73369563,20.7710303 C5.66602925,21.0387538 5.39414203,21.2009322 5.12641853,21.1332658 C5.11233022,21.129705 5.09840383,21.1255318 5.08467904,21.1207579 L3.80232572,20.674722 C3.54151013,20.5840035 3.40361917,20.2990289 3.49433763,20.0382133 C3.49771643,20.0284992 3.50139415,20.0188918 3.50536554,20.0094045 L6.72620612,12.3151743 C6.82500292,12.0791597 7.08603234,11.9558097 7.33110056,12.0293302 L7.44166013,12.062498 C7.69798397,12.1393952 7.84831804,12.4044808 7.78274246,12.663932 Z M11.1059879,11.8373713 L18.2497084,19.713781 C18.4352249,19.9183249 18.4198002,20.2345314 18.2152563,20.420048 C18.2100812,20.4247417 18.2048083,20.4293264 18.199441,20.4337991 L17.213431,21.2554742 C17.0012926,21.4322562 16.6860102,21.4035942 16.5092282,21.1914557 C16.5013857,21.1820447 16.4938917,21.1723487 16.4867614,21.1623873 L10.2846176,12.4976276 C10.1264133,12.2766069 10.1737498,11.9696876 10.391195,11.8066038 L10.4356284,11.7732787 C10.642127,11.6184048 10.9325768,11.6461744 11.1059879,11.8373713 Z" id="Combined-Shape"></path>
        </g>
    </g>
</svg>