<?xml version="1.0" encoding="utf-8"?>	<svg height="20px" version="1.1" viewBox="0 0 20 20" width="20px" xmlns="http://www.w3.org/2000/svg" xmlns:xlink="http://www.w3.org/1999/xlink">		
    		<!-- Generator: Sketch 53.2 (72643) - https://sketchapp.com -->		
    		<title>画板</title>		
    		<desc>Created with Sketch.</desc>		
    		<g fill="none" fill-rule="evenodd" id="画板" stroke="none" stroke-width="1">			
        			<g fill="#576B95" id="搜索">				
            				<path d="M13.429453,12.7952708 L16.9152761,16.2810939 L16.19637,17 L12.7033012,13.5069312 C11.6781074,14.3530589 10.3637495,14.8613452 8.93067258,14.8613452 C5.65524684,14.8613452 3,12.2060983 3,8.93067258 C3,5.65524684 5.65524684,3 8.93067258,3 C12.2060983,3 14.8613452,5.65524684 14.8613452,8.93067258 C14.8613452,10.4069729 14.3219353,11.7572848 13.429453,12.7952708 Z M13.8446562,8.93068308 C13.8446562,6.21675881 11.6445944,4.01669707 8.93067015,4.01669707 C6.21674588,4.01669707 4.01668414,6.21675881 4.01668414,8.93068308 C4.01668414,11.6446074 6.21674588,13.8446691 8.93067015,13.8446691 C11.6445944,13.8446691 13.8446562,11.6446074 13.8446562,8.93068308 Z" id="Fill-1"/>				
        			</g>			
    		</g>		
	</svg>