<?xml version="1.0" encoding="UTF-8"?>
<svg width="24px" height="24px" viewBox="0 0 24 24" version="1.1" xmlns="http://www.w3.org/2000/svg" xmlns:xlink="http://www.w3.org/1999/xlink">
    <!-- Generator: Sketch 50.2 (55047) - http://www.bohemiancoding.com/sketch -->
    <title>icons_outlined_sticker</title>
    <desc>Created with Sketch.</desc>
    <defs></defs>
    <g id="icons_outlined_sticker" stroke="none" stroke-width="1" fill="none" fill-rule="evenodd">
        <g id="icon23" fill="#000000" fill-rule="nonzero">
            <path d="M12,22 C6.4771525,22 2,17.5228475 2,12 C2,6.4771525 6.4771525,2 12,2 C17.5228475,2 22,6.4771525 22,12 C22,17.5228475 17.5228475,22 12,22 Z M12,20.8 C16.8601058,20.8 20.8,16.8601058 20.8,12 C20.8,7.1398942 16.8601058,3.2 12,3.2 C7.1398942,3.2 3.2,7.1398942 3.2,12 C3.2,16.8601058 7.1398942,20.8 12,20.8 Z M6,12.5 L18,12.5 C18,15.8137085 15.3137085,18.5 12,18.5 C8.6862915,18.5 6,15.8137085 6,12.5 Z M12,17.3 C14.2366073,17.3 16.1159277,15.7702727 16.648779,13.7 L7.35122098,13.7 C7.88407233,15.7702727 9.76339268,17.3 12,17.3 Z M8.5,10.5 C7.67157288,10.5 7,9.82842712 7,9 C7,8.17157288 7.67157288,7.5 8.5,7.5 C9.32842712,7.5 10,8.17157288 10,9 C10,9.82842712 9.32842712,10.5 8.5,10.5 Z M15.5,10.5 C14.6715729,10.5 14,9.82842712 14,9 C14,8.17157288 14.6715729,7.5 15.5,7.5 C16.3284271,7.5 17,8.17157288 17,9 C17,9.82842712 16.3284271,10.5 15.5,10.5 Z" id="Combined-Shape"></path>
        </g>
    </g>
</svg>