<?xml version="1.0" encoding="UTF-8"?>
<svg width="36px" height="36px" viewBox="0 0 36 36" version="1.1" xmlns="http://www.w3.org/2000/svg" xmlns:xlink="http://www.w3.org/1999/xlink">
    <!-- Generator: Sketch 52.1 (67048) - http://www.bohemiancoding.com/sketch -->
    <title>Artboard Copy</title>
    <desc>Created with Sketch.</desc>
    <g id="Artboard-Copy" stroke="none" stroke-width="1" fill="none" fill-rule="evenodd">
        <g id="Fav-Copy" transform="translate(2.000000, 0.000000)" fill="#FFFFFF">
            <g id="Group-24" transform="translate(15.921825, 17.904627) rotate(30.000000) translate(-15.921825, -17.904627) translate(6.168755, 2.983574)">
                <path d="M9.89101437,0.137359971 C12.8297573,0.137359971 15.2120792,2.51968183 15.2120792,5.45842478 L15.2120792,14.3414062 C15.2120792,17.2801492 12.8297573,19.662471 9.89101437,19.662471 C6.95227142,19.662471 4.56994956,17.2801492 4.56994956,14.3414062 L4.56994956,5.45842478 C4.56994956,2.51968183 6.95227142,0.137359971 9.89101437,0.137359971 Z M10.9552273,23.9429287 L10.9552273,26.1708414 L8.82680141,26.1708414 L8.82680141,23.9429287 C4.0378958,23.413542 0.313097713,19.3534916 0.313097713,14.4234679 L0.313097713,10.9846439 L2.44152364,10.9846439 L2.44152364,14.3824371 C2.44152364,18.4966772 5.77677424,21.8319278 9.89101437,21.8319278 C14.0052545,21.8319278 17.3405051,18.4966772 17.3405051,14.3824371 L17.3405051,10.9846439 L19.468931,10.9846439 L19.468931,14.4234679 C19.468931,19.3534916 15.7441329,23.413542 10.9552273,23.9429287 Z M8.82680141,27.2555698 L10.9552273,27.2555698 L10.1928271,29.0597937 C10.1223913,29.2264802 9.93016571,29.3045069 9.76347915,29.2340711 C9.68491888,29.2008744 9.62239842,29.1383539 9.58920167,29.0597937 L8.82680141,27.2555698 Z" id="Combined-Shape"></path>
            </g>
        </g>
    </g>
</svg>