<?xml version="1.0" encoding="UTF-8"?>
<svg width="24px" height="24px" viewBox="0 0 24 24" version="1.1" xmlns="http://www.w3.org/2000/svg" xmlns:xlink="http://www.w3.org/1999/xlink">
    <!-- Generator: Sketch 50.2 (55047) - http://www.bohemiancoding.com/sketch -->
    <title>icons_outlined_camera</title>
    <desc>Created with Sketch.</desc>
    <defs></defs>
    <g id="icons_outlined_camera" stroke="none" stroke-width="1" fill="none" fill-rule="evenodd">
        <g id="icon20" fill="#000000" fill-rule="nonzero">
            <path d="M14.3577795,5.2 L9.64222051,5.2 L7.64222051,8.2 L3.2,8.2 L3.2,18.8 L20.8,18.8 L20.8,8.2 L16.3577795,8.2 L14.3577795,5.2 Z M14.7324081,4 C14.8995847,4 15.0557004,4.08355057 15.1484333,4.2226499 L17,7 L21,7 C21.5522847,7 22,7.44771525 22,8 L22,19 C22,19.5522847 21.5522847,20 21,20 L3,20 C2.44771525,20 2,19.5522847 2,19 L2,8 C2,7.44771525 2.44771525,7 3,7 L7,7 L8.85156673,4.2226499 C8.94429962,4.08355057 9.10041529,4 9.26759188,4 L14.7324081,4 Z M12,15.8 C13.5463973,15.8 14.8,14.5463973 14.8,13 C14.8,11.4536027 13.5463973,10.2 12,10.2 C10.4536027,10.2 9.2,11.4536027 9.2,13 C9.2,14.5463973 10.4536027,15.8 12,15.8 Z M12,17 C9.790861,17 8,15.209139 8,13 C8,10.790861 9.790861,9 12,9 C14.209139,9 16,10.790861 16,13 C16,15.209139 14.209139,17 12,17 Z" id="Path-4"></path>
        </g>
    </g>
</svg>