<?xml version="1.0" encoding="UTF-8"?>
<svg width="24px" height="24px" viewBox="0 0 24 24" version="1.1" xmlns="http://www.w3.org/2000/svg" xmlns:xlink="http://www.w3.org/1999/xlink">
    <!-- Generator: Sketch 50.2 (55047) - http://www.bohemiancoding.com/sketch -->
    <title>icons_outlined_chats</title>
    <desc>Created with Sketch.</desc>
    <defs></defs>
    <g id="icons_outlined_chats" stroke="none" stroke-width="1" fill="none" fill-rule="evenodd">
        <g id="common_icons_chats" fill="#000000" fill-rule="nonzero">
            <path d="M8.66745316,18.2678377 L9.10723968,18.3951922 C10.0285416,18.6619852 11.0022092,18.8 12,18.8 C16.8994301,18.8 20.8,15.4845156 20.8,11.5 C20.8,7.51548439 16.8994301,4.2 12,4.2 C7.10056987,4.2 3.2,7.51548439 3.2,11.5 C3.2,13.5759237 4.25693049,15.5260959 6.10059482,16.9113629 L6.65125979,17.325114 L6.41619358,19.3473404 L8.66745316,18.2678377 Z M12,20 C10.8710167,20 9.78573058,19.8409734 8.77345417,19.5478358 L5.79050106,20.9781933 C5.70535272,21.0190228 5.61038279,21.0349049 5.51658297,21.0240015 C5.24228753,20.9921171 5.04577459,20.7439092 5.07765905,20.4696138 L5.37975626,17.8707334 C3.30699806,16.313333 2,14.0364044 2,11.5 C2,6.80557963 6.4771525,3 12,3 C17.5228475,3 22,6.80557963 22,11.5 C22,16.1944204 17.5228475,20 12,20 Z" id="Combined-Shape"></path>
        </g>
    </g>
</svg>